<svg width="17" height="56" viewBox="0 0 17 56" fill="none" xmlns="http://www.w3.org/2000/svg">
<g filter="url(#filter0_f_78_5394)">
<path d="M14.07 50.1515C14.07 51.1601 13.8433 51.8911 13.39 52.3445C12.9367 52.7978 12.2057 53.0245 11.197 53.0245L4.85599 53.0245C3.84732 53.0245 3.12198 52.7978 2.67998 52.3445C2.22665 51.8911 1.99998 51.1601 1.99998 50.1515L1.99998 46.5305C1.99998 45.5218 2.22665 44.7965 2.67998 44.3545C3.12198 43.9011 3.84732 43.6745 4.85598 43.6745L5.36598 43.6745C5.56998 43.6745 5.67198 43.7708 5.67198 43.9635L5.67198 45.4935C5.67198 45.6975 5.56998 45.7995 5.36598 45.7995L4.92398 45.7995C4.50465 45.7995 4.20432 45.8958 4.02298 46.0885C3.83032 46.2698 3.73398 46.5701 3.73398 46.9895L3.73398 49.7265C3.73398 50.1458 3.83032 50.4518 4.02298 50.6445C4.20432 50.8258 4.50465 50.9165 4.92398 50.9165L7.62698 50.9165L7.62698 50.8145C7.21898 50.5651 7.01498 50.0551 7.01498 49.2845L7.01498 46.2755C7.01498 45.2668 7.24165 44.5415 7.69498 44.0995C8.13698 43.6461 8.86232 43.4195 9.87098 43.4195L11.197 43.4195C12.2057 43.4195 12.9367 43.6461 13.39 44.0995C13.8433 44.5415 14.07 45.2668 14.07 46.2755L14.07 50.1515ZM12.319 46.7005C12.319 46.2811 12.2283 45.9808 12.047 45.7995C11.8543 45.6068 11.5483 45.5105 11.129 45.5105L9.90498 45.5105C9.48565 45.5105 9.18532 45.6068 9.00398 45.7995C8.81132 45.9808 8.71498 46.2811 8.71498 46.7005L8.71499 49.7095C8.71499 50.1288 8.81132 50.4348 9.00398 50.6275C9.18532 50.8201 9.48565 50.9165 9.90499 50.9165L11.129 50.9165C11.5483 50.9165 11.8543 50.8258 12.047 50.6445C12.2283 50.4518 12.319 50.1458 12.319 49.7265L12.319 46.7005ZM14.07 38.0126C14.07 40.0186 13.067 41.0216 11.061 41.0216L4.99198 41.0216C2.99732 41.0216 1.99998 40.0186 1.99998 38.0126L1.99998 33.7626C1.99998 31.7679 2.99732 30.7706 4.99198 30.7706L11.061 30.7706C13.067 30.7706 14.07 31.7679 14.07 33.7626L14.07 38.0126ZM12.285 34.1026C12.285 33.2526 11.86 32.8276 11.01 32.8276L5.05998 32.8276C4.20998 32.8276 3.78498 33.2526 3.78498 34.1026L3.78498 37.6726C3.78498 38.5226 4.20998 38.9476 5.05998 38.9476L11.01 38.9476C11.86 38.9476 12.285 38.5226 12.285 37.6726L12.285 34.1026ZM9.07198 36.7206C9.07198 36.9246 8.96998 37.0266 8.76598 37.0266L7.11698 37.0266C6.91298 37.0266 6.81098 36.9246 6.81098 36.7206L6.81098 35.0716C6.81098 34.8676 6.91298 34.7656 7.11698 34.7656L8.76598 34.7656C8.96998 34.7656 9.07198 34.8676 9.07198 35.0716L9.07198 36.7206ZM6.33498 28.2131C6.33498 28.4058 6.23298 28.5021 6.02898 28.5021L4.32898 28.5021C4.13632 28.5021 4.03998 28.4058 4.03998 28.2131L4.03998 26.4451C4.03998 26.2524 4.13632 26.1561 4.32898 26.1561L6.02898 26.1561C6.23298 26.1561 6.33498 26.2524 6.33498 26.4451L6.33498 28.2131ZM12.795 28.2131C12.795 28.4058 12.693 28.5021 12.489 28.5021L10.789 28.5021C10.5963 28.5021 10.5 28.4058 10.5 28.2131L10.5 26.4451C10.5 26.2524 10.5963 26.1561 10.789 26.1561L12.489 26.1561C12.693 26.1561 12.795 26.2524 12.795 26.4451L12.795 28.2131ZM14.07 20.9647C14.07 21.9734 13.8433 22.7044 13.39 23.1577C12.9367 23.6111 12.2057 23.8377 11.197 23.8377L10.84 23.8377C10.636 23.8377 10.534 23.7414 10.534 23.5487L10.534 22.0187C10.534 21.8147 10.636 21.7127 10.84 21.7127L11.129 21.7127C11.5483 21.7127 11.8543 21.6221 12.047 21.4407C12.2283 21.2481 12.319 20.9421 12.319 20.5227L12.319 17.8197C12.319 17.4004 12.2283 17.1001 12.047 16.9187C11.8543 16.7261 11.5483 16.6297 11.129 16.6297L9.34398 16.6297C8.92465 16.6297 8.62432 16.7261 8.44298 16.9187C8.25032 17.1001 8.15398 17.4004 8.15398 17.8197L8.15398 20.5227C8.15398 20.8287 8.19932 21.0554 8.28998 21.2027C8.38065 21.3501 8.51098 21.4577 8.68098 21.5257C8.76032 21.5597 8.82265 21.6051 8.86798 21.6617C8.90198 21.7071 8.91898 21.7807 8.91898 21.8827L8.91898 23.3447C8.91898 23.5487 8.82265 23.6507 8.62998 23.6507L2.37398 23.6507C2.18132 23.6507 2.08498 23.5487 2.08498 23.3447L2.08498 15.4737C2.08498 15.2697 2.18132 15.1677 2.37398 15.1677L3.52998 15.1677C3.72265 15.1677 3.81898 15.2697 3.81898 15.4737L3.81898 21.5937L7.03198 21.5937L7.03198 21.4747C6.62398 21.2254 6.41998 20.7154 6.41998 19.9447L6.41998 17.3947C6.41998 16.3861 6.64665 15.6607 7.09998 15.2187C7.55332 14.7654 8.28432 14.5387 9.29298 14.5387L11.197 14.5387C12.2057 14.5387 12.9367 14.7654 13.39 15.2187C13.8433 15.6607 14.07 16.3861 14.07 17.3947L14.07 20.9647ZM14.07 9.24204C14.07 11.248 13.067 12.251 11.061 12.251L4.99198 12.251C2.99732 12.251 1.99998 11.248 1.99998 9.24204L1.99998 4.99204C1.99998 2.99738 2.99732 2.00004 4.99198 2.00004L11.061 2.00004C13.067 2.00004 14.07 2.99738 14.07 4.99204L14.07 9.24204ZM12.285 5.33204C12.285 4.48204 11.86 4.05704 11.01 4.05704L5.05998 4.05704C4.20998 4.05704 3.78498 4.48204 3.78498 5.33204L3.78498 8.90204C3.78498 9.75204 4.20998 10.177 5.05998 10.177L11.01 10.177C11.86 10.177 12.285 9.75204 12.285 8.90204L12.285 5.33204ZM9.07198 7.95004C9.07198 8.15404 8.96998 8.25604 8.76598 8.25604L7.11698 8.25604C6.91298 8.25604 6.81098 8.15404 6.81098 7.95004L6.81098 6.30104C6.81098 6.09704 6.91298 5.99504 7.11698 5.99504L8.76598 5.99504C8.96998 5.99504 9.07198 6.09704 9.07198 6.30104L9.07198 7.95004Z" fill="#BEF3DF"/>
</g>
<defs>
<filter id="filter0_f_78_5394" x="0" y="0" width="16.0699" height="55.0244" filterUnits="userSpaceOnUse" color-interpolation-filters="sRGB">
<feFlood flood-opacity="0" result="BackgroundImageFix"/>
<feBlend mode="normal" in="SourceGraphic" in2="BackgroundImageFix" result="shape"/>
<feGaussianBlur stdDeviation="1" result="effect1_foregroundBlur_78_5394"/>
</filter>
</defs>
</svg>
