<svg width="146" height="155" viewBox="0 0 146 155" fill="none" xmlns="http://www.w3.org/2000/svg">
<g opacity="0.9">
<g opacity="0.5">
<path d="M37.2777 77.3223C37.2777 60.2612 51.1066 46.4264 68.1736 46.4264C84.3987 46.4264 97.6978 58.9366 98.9577 74.8379H122.454C121.158 45.979 97.3564 22.9778 68.1736 22.9778C38.1607 22.9778 13.8291 47.3095 13.8291 77.3223C13.8291 91.9519 19.622 105.227 29.0297 114.994L45.6081 98.4102C40.445 92.8939 37.2777 85.4819 37.2777 77.3223Z" fill="white" fill-opacity="0.4"/>
</g>
<g opacity="0.15">
<path d="M98.9703 79.6598C97.7752 95.6317 84.4466 108.218 68.1744 108.218C60.1325 108.218 52.8148 105.145 47.3162 100.112L30.7379 116.696C40.4871 125.968 53.6625 131.667 68.1744 131.667C97.4043 131.667 121.236 108.589 122.46 79.6598H98.9703Z" fill="white" fill-opacity="0.15"/>
</g>
<path d="M86.5832 26.1805L78.6355 48.2515C84.2636 50.2767 89.1324 53.8915 92.7001 58.56L111.309 44.2836C105.034 36.0945 96.4737 29.7423 86.5832 26.1805Z" fill="white"/>
</g>
<g opacity="0.3">
<path d="M120.582 81.4257C119.593 94.2892 113.953 106.24 104.592 115.236C94.7548 124.691 81.8206 129.901 68.1741 129.901C55.2459 129.901 42.924 125.203 33.2867 116.643L47.3983 102.525C53.2383 107.347 60.5502 109.984 68.1741 109.984C84.6112 109.984 98.5344 97.5683 100.565 81.4257H120.582ZM122.46 79.6595H98.9759C97.7808 95.6314 84.4522 108.218 68.18 108.218C60.1381 108.218 52.8204 105.145 47.3218 100.112L30.7435 116.696C40.4927 125.968 53.6681 131.667 68.18 131.667C97.404 131.667 121.235 108.589 122.46 79.6595Z" fill="white" fill-opacity="0.15"/>
</g>
<g opacity="0.35">
<path d="M68.1731 0V5.76942C107.653 5.76942 139.655 37.7721 139.655 77.2515C139.655 116.731 107.653 148.734 68.1731 148.734C52.2012 148.734 37.4538 143.494 25.5558 134.64L22.1177 139.273C34.9812 148.839 50.9178 154.503 68.179 154.503C110.843 154.503 145.431 119.916 145.431 77.2515C145.425 34.5871 110.838 0 68.1731 0Z" fill="white" fill-opacity="0.15"/>
</g>
<path d="M114.406 15.3596C101.513 5.71642 85.5121 0 68.1743 0V5.76942C84.2169 5.76942 99.0291 11.0561 110.957 19.9811L114.406 15.3596Z" fill="white"/>
<path d="M22.7342 132.467L19.1023 136.934L19.8194 137.517L23.4514 133.05L22.7342 132.467Z" fill="white" fill-opacity="0.15"/>
<path d="M68.1448 68.5564C63.3409 68.5564 59.4495 72.4478 59.4495 77.2518C59.4495 82.0557 63.3409 85.9471 68.1448 85.9471C72.9488 85.9471 76.8401 82.0557 76.8401 77.2518C76.8401 72.4478 72.9488 68.5564 68.1448 68.5564ZM68.1448 82.6621C65.16 82.6621 62.7344 80.2424 62.7344 77.2518C62.7344 74.267 65.1542 71.8415 68.1448 71.8415C71.1296 71.8415 73.5551 74.2611 73.5551 77.2518C73.5492 80.2366 71.1296 82.6621 68.1448 82.6621Z" fill="white" fill-opacity="0.4"/>
<g opacity="0.8">
<path d="M68.1442 145.396C30.5663 145.396 0 114.824 0 77.2517C0 65.6304 2.97884 54.1563 8.60699 44.0716L10.1495 44.9311C4.66264 54.7568 1.76616 65.9307 1.76616 77.2517C1.76616 113.852 31.5435 143.63 68.1442 143.63C104.745 143.63 134.522 113.852 134.522 77.2517C134.522 65.6127 131.467 54.1622 125.685 44.1422L127.216 43.2592C133.15 53.5499 136.288 65.3066 136.288 77.2517C136.288 114.824 105.716 145.396 68.1442 145.396Z" fill="white" fill-opacity="0.15"/>
</g>
</svg>
