<svg width="121" height="123" viewBox="0 0 121 123" fill="none" xmlns="http://www.w3.org/2000/svg">
<g opacity="0.9">
<g opacity="0.5">
<path d="M77.1264 48.9865C71.2944 40.9894 60.0831 39.2316 52.0832 45.0657C44.4779 50.6119 42.5205 61.022 47.3655 68.9061L36.3521 76.9377C27.0943 62.9678 30.3887 44.05 44.0677 34.0744C58.1359 23.8151 77.8583 26.903 88.1176 40.9711C93.1185 47.8285 94.9411 56.0315 93.87 63.8254L80.4301 61.7188C80.9646 57.3682 79.9156 52.8112 77.1264 48.9865Z" fill="white" fill-opacity="0.4"/>
</g>
<g opacity="0.15">
<path d="M49.0079 71.1704C55.0278 78.2485 65.5779 79.5922 73.2053 74.0299C76.9749 71.2809 79.3545 67.3391 80.2113 63.1001L93.6511 65.2067C92.2508 72.8855 88.0231 80.0605 81.2208 85.0211C67.5197 95.0128 48.4604 92.3417 37.9974 79.1999L49.0079 71.1704Z" fill="white" fill-opacity="0.15"/>
</g>
<path d="M36.5333 41.8684L47.8032 49.4971C45.8574 52.3703 44.8108 55.7289 44.7344 59.1368L31.1314 58.8061C31.2738 52.8224 33.1148 46.9188 36.5333 41.8684Z" fill="#BEF3DF"/>
</g>
<g opacity="0.3">
<path d="M39.4813 79.3856C44.3421 85.0771 51.0709 88.7511 58.5335 89.7679C66.3767 90.837 74.2204 88.8579 80.617 84.1931C86.677 79.7738 90.8468 73.3597 92.4381 66.053L80.9977 64.2594C79.9084 68.5158 77.3826 72.2515 73.809 74.8576C66.1044 80.4763 55.3339 79.4158 48.8638 72.5434L39.4813 79.3856ZM37.9973 79.1997L49.0051 71.1722C55.025 78.2503 65.5751 79.5941 73.2025 74.0317C76.972 71.2828 79.3517 67.3409 80.2085 63.1019L93.6483 65.2085C92.248 72.8873 88.0202 80.0624 81.218 85.023C67.5196 95.0126 48.4603 92.3415 37.9973 79.1997Z" fill="white" fill-opacity="0.15"/>
</g>
<g opacity="0.35">
<path d="M36.2134 23.3037L38.1855 26.008C19.6801 39.5033 15.6187 65.4437 29.1139 83.9492C42.6092 102.455 68.5496 106.516 87.0551 93.0206C94.5417 87.5609 99.6633 80.0638 102.214 71.8464L105.409 72.8429C102.65 81.7242 97.1154 89.8265 89.0245 95.7269C69.0261 110.311 40.9909 105.922 26.4069 85.9233C11.8256 65.9229 16.215 37.8877 36.2134 23.3037Z" fill="white" fill-opacity="0.15"/>
</g>
<path d="M19.7926 46.3071C22.5396 37.3798 28.086 29.2305 36.2129 23.304L38.185 26.0083C30.6653 31.4921 25.5294 39.0335 22.9894 47.2941L19.7926 46.3071Z" fill="#BEF3DF"/>
<path d="M102.794 69.8632L106.023 70.7157L105.886 71.2341L102.657 70.3816L102.794 69.8632Z" fill="white" fill-opacity="0.15"/>
<path d="M59.6614 55.4288C61.9132 53.7866 65.0675 54.2805 66.7096 56.5323C68.3518 58.784 67.8579 61.9383 65.6061 63.5804C63.3543 65.2226 60.2001 64.7287 58.558 62.4769C56.9159 60.2251 57.4097 57.0709 59.6614 55.4288ZM64.4832 62.0406C65.8823 61.0203 66.1922 59.057 65.1699 57.6552C64.1496 56.2561 62.1862 55.9463 60.7844 56.9686C59.3853 57.9889 59.0755 59.9522 60.0978 61.354C61.1208 62.7511 63.0841 63.0609 64.4832 62.0406Z" fill="white" fill-opacity="0.4"/>
<g opacity="0.8">
<path d="M85.9277 91.446C103.542 78.6008 107.419 53.822 94.5756 36.2107C90.6031 30.7633 85.2846 26.4033 79.1992 23.6L78.77 24.5302C84.7006 27.2603 89.8779 31.5078 93.7477 36.8144C106.259 53.9704 102.48 78.107 85.3239 90.6182C68.1679 103.129 44.0313 99.3505 31.5201 82.1945C27.5416 76.7389 25.0596 70.3271 24.3444 63.6542L23.3251 63.7635C24.0611 70.6156 26.6091 77.1991 30.6923 82.7982C43.5355 100.41 68.3163 104.289 85.9277 91.446Z" fill="white" fill-opacity="0.15"/>
</g>
</svg>
