<svg width="76" height="68" viewBox="0 0 76 68" fill="none" xmlns="http://www.w3.org/2000/svg">
<g filter="url(#filter0_f_1_602)">
<path fill-rule="evenodd" clip-rule="evenodd" d="M39.8779 10.7178C39.6836 10.3893 39.4084 10.1174 39.0793 9.92857C38.7502 9.73976 38.3783 9.64052 38 9.64052C37.6217 9.64052 37.2498 9.73976 36.9207 9.92857C36.5916 10.1174 36.3164 10.3893 36.1221 10.7178L9.89724 55.0057C9.69819 55.3418 9.59084 55.7255 9.58615 56.1173C9.58145 56.5092 9.67957 56.8954 9.8705 57.2363C10.0614 57.5773 10.3383 57.8609 10.6729 58.0582C11.0075 58.2554 11.3879 58.3593 11.7751 58.3593H64.2336C64.6212 58.3601 65.0021 58.2568 65.3374 58.0598C65.6726 57.8629 65.9501 57.5794 66.1416 57.2383C66.333 56.8972 66.4315 56.5107 66.427 56.1184C66.4225 55.7262 66.3151 55.3422 66.1159 55.0057L39.8779 10.7178ZM30.4928 7.30662C33.8853 1.5652 42.1104 1.5652 45.5072 7.3022L71.7408 51.5856C75.2383 57.491 71.0361 65 64.2292 65H11.7708C4.96394 65.0044 0.761653 57.4954 4.25918 51.59L30.4928 7.30662ZM42.3774 49.499C42.3774 50.674 41.9162 51.8008 41.0953 52.6316C40.2744 53.4624 39.1609 53.9291 38 53.9291C36.839 53.9291 35.7256 53.4624 34.9047 52.6316C34.0838 51.8008 33.6226 50.674 33.6226 49.499C33.6226 48.3241 34.0838 47.1973 34.9047 46.3665C35.7256 45.5357 36.839 45.0689 38 45.0689C39.1609 45.0689 40.2744 45.5357 41.0953 46.3665C41.9162 47.1973 42.3774 48.3241 42.3774 49.499ZM41.283 24.0259C41.283 23.1447 40.9371 22.2996 40.3215 21.6765C39.7058 21.0533 38.8707 20.7033 38 20.7033C37.1293 20.7033 36.2942 21.0533 35.6785 21.6765C35.0629 22.2996 34.717 23.1447 34.717 24.0259V37.3162C34.717 38.1974 35.0629 39.0425 35.6785 39.6656C36.2942 40.2887 37.1293 40.6388 38 40.6388C38.8707 40.6388 39.7058 40.2887 40.3215 39.6656C40.9371 39.0425 41.283 38.1974 41.283 37.3162V24.0259Z" fill="#FF6458"/>
</g>
<defs>
<filter id="filter0_f_1_602" x="0" y="0" width="76" height="68" filterUnits="userSpaceOnUse" color-interpolation-filters="sRGB">
<feFlood flood-opacity="0" result="BackgroundImageFix"/>
<feBlend mode="normal" in="SourceGraphic" in2="BackgroundImageFix" result="shape"/>
<feGaussianBlur stdDeviation="1.5" result="effect1_foregroundBlur_1_602"/>
</filter>
</defs>
</svg>
