<svg width="640" height="640" viewBox="0 0 640 640" fill="none" xmlns="http://www.w3.org/2000/svg">
<g clip-path="url(#clip0_1_603)">
<g clip-path="url(#clip1_1_603)">
<path opacity="0.4" d="M467.74 435.331C451.935 455.407 432.028 472.244 409.565 484.442L407.998 481.562C430.065 469.575 449.633 453.028 465.164 433.298L467.74 435.331Z" fill="white" fill-opacity="0.25"/>
<path d="M492.723 393.328C486.871 406.889 479.438 419.758 470.649 431.625L468.023 429.662C476.663 418 483.963 405.357 489.709 392.036L492.723 393.328Z" fill="white" fill-opacity="0.25"/>
<path opacity="0.4" d="M504.851 286.804C505.592 290.426 505.995 294.096 506.489 297.753C506.771 299.581 506.891 301.424 507.039 303.259L507.484 308.78C507.576 310.622 507.604 312.472 507.675 314.314L507.759 317.081L507.802 318.465L507.781 319.849L507.668 325.383L507.611 328.15L507.414 330.911L504.138 330.713L504.329 328.002L504.385 325.284L504.491 319.842L504.512 318.479L504.47 317.117L504.385 314.399C504.322 312.585 504.293 310.77 504.202 308.963L503.764 303.542C503.616 301.735 503.496 299.92 503.22 298.127C502.733 294.534 502.345 290.927 501.611 287.369L504.851 286.804Z" fill="white" fill-opacity="0.25"/>
<path d="M495.328 252.673C499.069 262.436 502.006 272.495 504.11 282.738L500.898 283.387C498.836 273.328 495.949 263.438 492.271 253.852L495.328 252.673Z" fill="white" fill-opacity="0.25"/>
<path opacity="0.4" d="M299.257 505.811L295.367 505.338C294.068 505.176 292.769 505.042 291.485 504.787L283.762 503.446L276.11 501.724L274.197 501.286L272.312 500.757L268.535 499.698L269.446 496.542L273.152 497.58L275.008 498.102L276.886 498.533L284.397 500.227L291.986 501.547C293.25 501.794 294.527 501.928 295.798 502.084L299.624 502.55L299.257 505.811Z" fill="white" fill-opacity="0.25"/>
<path d="M495.328 252.673C499.069 262.436 502.006 272.495 504.11 282.738L500.898 283.387C498.836 273.328 495.949 263.438 492.271 253.852L495.328 252.673Z" fill="white" fill-opacity="0.25"/>
<path d="M254.564 495.088L248.755 492.815C247.78 492.455 246.841 491.996 245.888 491.579L243.044 490.302C239.21 488.678 235.568 486.659 231.848 484.796C230.019 483.807 228.233 482.734 226.426 481.711L223.722 480.158C222.833 479.621 221.965 479.042 221.089 478.484L215.837 475.117L210.755 471.503C209.907 470.896 209.053 470.31 208.22 469.682L205.771 467.754C204.147 466.456 202.481 465.206 200.886 463.872C197.758 461.126 194.539 458.493 191.589 455.549L189.33 453.396C188.574 452.683 187.819 451.963 187.12 451.2L182.821 446.683L181.748 445.546L180.724 444.367L178.684 442.009C177.336 440.428 175.931 438.896 174.675 437.23C153.666 411.4 139.943 379.796 135.079 346.886L138.326 346.413C143.106 378.737 156.582 409.798 177.23 435.176C178.458 436.814 179.842 438.317 181.169 439.87L183.174 442.186L184.176 443.343L185.228 444.459L189.457 448.899C190.149 449.654 190.89 450.36 191.631 451.059L193.848 453.177C196.742 456.064 199.912 458.655 202.982 461.352C204.549 462.658 206.187 463.893 207.783 465.164L210.19 467.063C211.009 467.677 211.849 468.256 212.682 468.849L217.68 472.399L222.84 475.71C223.701 476.254 224.555 476.826 225.431 477.355L228.092 478.88C229.871 479.889 231.622 480.941 233.422 481.908C237.079 483.737 240.651 485.72 244.42 487.316L247.216 488.572C248.147 488.982 249.065 489.44 250.025 489.786L255.729 492.024L254.564 495.088Z" fill="white" fill-opacity="0.25"/>
<path d="M495.328 252.673C499.069 262.436 502.006 272.495 504.11 282.738L500.898 283.387C498.836 273.328 495.949 263.438 492.271 253.852L495.328 252.673Z" fill="white" fill-opacity="0.25"/>
<path d="M463.942 199.439C469.209 205.841 474.242 212.463 478.612 219.515L475.844 221.273C471.552 214.341 466.604 207.832 461.436 201.542L463.942 199.439Z" fill="white" fill-opacity="0.25"/>
<path opacity="0.4" d="M133.957 301.734L134.705 295.628L135.08 292.571C135.214 291.555 135.418 290.552 135.588 289.536L136.64 283.472C137.021 281.46 137.529 279.469 137.967 277.465C138.786 273.441 140.014 269.523 141.094 265.563C141.348 264.567 141.701 263.607 142.019 262.633L143 259.718C143.664 257.776 144.257 255.814 145.047 253.915L147.292 248.183C147.645 247.223 148.083 246.291 148.506 245.352L149.77 242.549C151.372 238.773 153.335 235.165 155.184 231.502C159.145 224.322 163.345 217.249 168.223 210.649L170.009 208.143C170.602 207.31 171.265 206.519 171.894 205.707L175.699 200.872C177.019 199.304 178.381 197.765 179.715 196.212L181.734 193.89L183.852 191.659L188.109 187.212L192.563 182.969C193.312 182.27 194.039 181.543 194.801 180.858L197.131 178.847C198.691 177.512 200.215 176.143 201.804 174.844C205.051 172.338 208.2 169.698 211.595 167.396L214.101 165.618C214.941 165.025 215.76 164.41 216.635 163.874L221.817 160.549C223.518 159.405 225.339 158.445 227.104 157.408L229.773 155.876L231.107 155.106L232.476 154.4L237.947 151.591C238.406 151.358 238.858 151.118 239.317 150.892L240.714 150.257L243.517 148.986C258.433 142.124 274.324 137.493 290.496 134.769C298.607 133.568 306.775 132.615 314.985 132.488C319.086 132.277 323.188 132.446 327.289 132.517L328.828 132.545L330.36 132.651L333.431 132.87L336.502 133.088C337.525 133.159 338.549 133.216 339.565 133.364C343.631 133.893 347.726 134.253 351.75 135.044C353.769 135.404 355.795 135.729 357.807 136.124L363.807 137.486C364.809 137.719 365.812 137.931 366.807 138.178L369.772 139.011L375.695 140.677L381.533 142.633L384.448 143.614L387.314 144.736L393.046 146.981L398.658 149.508L401.461 150.772L404.2 152.17L409.678 154.979L415.015 158.043C415.904 158.558 416.801 159.052 417.676 159.589L420.267 161.248C421.989 162.363 423.733 163.443 425.434 164.587L430.446 168.152L428.512 170.806L423.585 167.298C421.912 166.175 420.196 165.116 418.509 164.015L415.968 162.384C415.107 161.862 414.224 161.375 413.356 160.867L408.111 157.852L402.732 155.092L400.042 153.716L397.289 152.473L391.776 149.988L386.149 147.779L383.333 146.678L380.467 145.717L374.735 143.797L368.918 142.16L366.009 141.341C365.035 141.094 364.047 140.889 363.066 140.663L357.171 139.329C355.195 138.941 353.204 138.63 351.22 138.27C347.26 137.486 343.243 137.14 339.248 136.618C338.252 136.477 337.243 136.42 336.24 136.35L333.226 136.138L330.212 135.926L328.701 135.82L327.19 135.792C323.16 135.729 319.129 135.552 315.105 135.764C307.043 135.884 299.017 136.823 291.047 138.002C275.157 140.677 259.549 145.223 244.894 151.965L242.14 153.214L240.764 153.836C240.312 154.054 239.867 154.294 239.416 154.52L234.036 157.281L232.695 157.972L231.382 158.728L228.763 160.238C227.027 161.262 225.241 162.201 223.568 163.33L218.478 166.592C217.617 167.121 216.812 167.721 215.986 168.3L213.522 170.051C210.183 172.317 207.091 174.908 203.9 177.371C202.34 178.649 200.844 179.997 199.312 181.303L197.025 183.28C196.276 183.95 195.556 184.663 194.822 185.355L190.445 189.52L186.266 193.89L184.184 196.078L182.2 198.365C180.887 199.89 179.546 201.401 178.247 202.94L174.506 207.691C173.891 208.488 173.242 209.258 172.656 210.084L170.905 212.548C166.112 219.035 161.99 225.981 158.093 233.034C156.279 236.634 154.344 240.178 152.77 243.891L151.528 246.644C151.118 247.561 150.688 248.472 150.335 249.418L148.132 255.044C147.356 256.908 146.777 258.835 146.12 260.741L145.16 263.607C144.843 264.567 144.497 265.513 144.25 266.487C143.191 270.377 141.977 274.224 141.179 278.177C140.748 280.147 140.254 282.102 139.873 284.079L138.835 290.037C138.673 291.032 138.468 292.021 138.334 293.016L137.967 296.016L137.233 302.017L133.957 301.734Z" fill="white" fill-opacity="0.25"/>
<path d="M393.928 492.01C384.306 496.097 374.353 499.387 364.188 501.85L363.418 498.66C373.4 496.245 383.177 493.012 392.629 488.995L393.928 492.01Z" fill="white" fill-opacity="0.25"/>
<g opacity="0.8">
<path d="M26.5075 320.095H20.2389C20.2389 255.75 40.3155 194.412 78.2943 142.717C96.5707 117.84 118.483 95.9848 143.409 77.7719C168.639 59.3402 196.417 45.0381 225.967 35.2751L227.937 41.2261C107.456 81.0404 26.5075 193.113 26.5075 320.095Z" fill="white" fill-opacity="0.25"/>
<path d="M174.555 582.347C132.432 558.917 96.1333 525.23 69.5692 484.936L74.8072 481.484C100.814 520.938 136.364 553.919 177.604 576.862L174.555 582.347Z" fill="white" fill-opacity="0.25"/>
<path d="M320.145 619.994V613.725C368.409 613.725 416.257 601.767 458.527 579.142C520.423 546.005 568.497 491.812 593.896 426.527L599.741 428.801C573.798 495.475 524.701 550.827 461.485 584.669C418.311 607.781 369.432 619.994 320.145 619.994Z" fill="white" fill-opacity="0.25"/>
<path d="M488.409 79.4237C438.945 44.7769 380.756 26.4581 320.145 26.4581V20.1895C382.054 20.1895 441.486 38.8965 492.01 74.2846L488.409 79.4237Z" fill="white" fill-opacity="0.25"/>
</g>
<path d="M299.934 639.866C298.317 639.767 296.708 639.654 295.098 639.527L295.473 634.741C297.061 634.861 298.642 634.974 300.238 635.073L299.934 639.866ZM288.336 638.934C286.726 638.772 285.117 638.602 283.514 638.419L284.058 633.647C285.639 633.83 287.22 633.993 288.809 634.148L288.336 638.934ZM231.276 628.006C229.723 627.555 228.17 627.096 226.624 626.63L228.021 622.041C229.546 622.507 231.071 622.959 232.603 623.397L231.276 628.006ZM209.102 620.728C207.578 620.163 206.067 619.592 204.556 619.006L206.286 614.523C207.775 615.102 209.272 615.667 210.768 616.217L209.102 620.728ZM146.642 589.491C145.28 588.616 143.931 587.726 142.583 586.83L145.244 582.834C146.571 583.717 147.906 584.592 149.24 585.453L146.642 589.491ZM127.54 576.163C126.248 575.189 124.963 574.208 123.685 573.219L126.629 569.429C127.886 570.403 129.156 571.377 130.427 572.337L127.54 576.163ZM92.5117 545.568C91.3751 544.418 90.2456 543.26 89.1232 542.095L92.5893 538.77C93.6906 539.921 94.8059 541.057 95.9213 542.187L92.5117 545.568ZM76.7554 528.464C75.7035 527.235 74.6658 526 73.6281 524.758L77.3201 521.687C78.3367 522.908 79.3602 524.122 80.398 525.336L76.7554 528.464ZM603.242 470.26L599 468.001C599.748 466.596 600.489 465.177 601.216 463.758L605.487 465.947C604.753 467.394 604.005 468.827 603.242 470.26ZM27.277 450.226C26.6205 448.757 25.9781 447.282 25.3498 445.8L29.7689 443.915C30.3901 445.369 31.0255 446.823 31.6679 448.277L27.277 450.226ZM617.94 438.514L613.478 436.736C614.071 435.253 614.65 433.764 615.215 432.274L619.705 433.982C619.133 435.493 618.547 437.004 617.94 438.514ZM18.6153 428.688C18.0717 427.17 17.5352 425.645 17.0058 424.114L21.5449 422.553C22.0602 424.057 22.5896 425.561 23.1332 427.057L18.6153 428.688ZM622.062 427.587L617.537 425.984C618.074 424.481 618.596 422.97 619.112 421.452L623.658 422.991C623.135 424.53 622.606 426.062 622.062 427.587ZM634.423 382.711L629.708 381.779C630.018 380.219 630.315 378.659 630.604 377.092L635.327 377.953C635.037 379.541 634.734 381.13 634.423 382.711ZM636.477 371.268L631.734 370.506C631.988 368.938 632.228 367.364 632.454 365.783L637.205 366.475C636.979 368.07 636.732 369.665 636.477 371.268ZM2.3225 360.94C2.11779 359.338 1.92718 357.735 1.74364 356.126L6.51569 355.596C6.69217 357.178 6.88278 358.759 7.08044 360.333L2.3225 360.94ZM0.225902 337.772C0.14119 336.155 0.0635334 334.546 0 332.929L4.80029 332.738C4.86382 334.334 4.93442 335.922 5.02619 337.511L0.225902 337.772ZM635.2 301.494C635.108 299.906 635.002 298.31 634.889 296.729L639.682 296.383C639.795 297.993 639.901 299.602 640 301.219L635.2 301.494ZM7.02396 280.331L2.25895 279.73C2.46367 278.128 2.67545 276.526 2.90135 274.923L7.65931 275.594C7.43341 277.175 7.22161 278.749 7.02396 280.331ZM8.66171 268.986L3.92495 268.217C4.18614 266.621 4.45439 265.026 4.73676 263.438L9.46648 264.278C9.18411 265.845 8.91584 267.412 8.66171 268.986ZM10.7089 257.713L6.00038 256.767C6.31804 255.178 6.64982 253.597 6.98867 252.023L11.6831 253.039C11.3442 254.592 11.0195 256.152 10.7089 257.713ZM629.242 256.082C628.924 254.522 628.585 252.962 628.239 251.409L632.927 250.371C633.273 251.945 633.611 253.526 633.943 255.108L629.242 256.082ZM19.3 224.442L14.7256 222.988C15.2198 221.442 15.721 219.896 16.2363 218.357L20.7895 219.882C20.2813 221.4 19.7871 222.917 19.3 224.442ZM620.474 222.861C619.98 221.343 619.479 219.833 618.971 218.329L623.517 216.783C624.039 218.308 624.547 219.847 625.041 221.379L620.474 222.861ZM27.0652 202.792L22.6038 201.006C23.2038 199.495 23.818 197.998 24.4462 196.502L28.8724 198.358C28.2653 199.834 27.6582 201.309 27.0652 202.792ZM612.624 201.323C612.024 199.855 611.417 198.387 610.796 196.932L615.222 195.062C615.85 196.544 616.464 198.027 617.072 199.523L612.624 201.323ZM592.406 160.387C591.602 159.017 590.783 157.655 589.957 156.299L594.058 153.807C594.898 155.184 595.724 156.567 596.543 157.958L592.406 160.387ZM586.434 150.638C585.58 149.296 584.712 147.962 583.844 146.635L587.853 143.995C588.743 145.343 589.618 146.692 590.486 148.054L586.434 150.638ZM573.438 131.804C572.492 130.526 571.532 129.262 570.565 127.999L574.37 125.076C575.351 126.354 576.325 127.646 577.293 128.937L573.438 131.804ZM551.477 105.416C550.397 104.251 549.303 103.094 548.201 101.943L551.674 98.625C552.79 99.7898 553.898 100.969 554.999 102.155L551.477 105.416ZM543.528 97.1567C542.399 96.0272 541.269 94.9118 540.126 93.8035L543.472 90.3586C544.629 91.4881 545.78 92.6176 546.924 93.7612L543.528 97.1567ZM508.902 67.1477C507.625 66.1947 506.347 65.2488 505.055 64.317L507.872 60.4273C509.178 61.3733 510.484 62.3333 511.783 63.3005L508.902 67.1477ZM499.598 60.4485C498.285 59.5449 496.965 58.6413 495.645 57.7518L498.321 53.7634C499.662 54.667 500.996 55.5776 502.33 56.4953L499.598 60.4485ZM480.263 48.0736C478.894 47.2618 477.51 46.4641 476.126 45.6735L478.498 41.5014C479.91 42.3062 481.308 43.118 482.698 43.9369L480.263 48.0736ZM406.543 16.4693C405.011 16.0316 403.479 15.6081 401.94 15.1986L403.183 10.5607C404.743 10.9772 406.303 11.4078 407.856 11.8525L406.543 16.4693ZM384.285 11.0195C382.732 10.7019 381.165 10.3913 379.598 10.0877L380.501 5.37213C382.09 5.67568 383.678 5.99332 385.259 6.31805L384.285 11.0195ZM338.873 5.04033C337.285 4.94855 335.696 4.86387 334.108 4.80033L334.313 0C335.929 0.0705926 337.546 0.15533 339.155 0.2471L338.873 5.04033Z" fill="white" fill-opacity="0.25"/>
<path d="M603.243 470.26L599 468.001C599.748 466.596 600.489 465.177 601.217 463.758L605.487 465.946C604.753 467.393 604.005 468.826 603.243 470.26ZM10.709 257.712L6.00046 256.766C6.31812 255.178 6.64991 253.597 6.98875 252.022L11.6832 253.039C11.3443 254.592 11.0196 256.152 10.709 257.712ZM612.624 201.323C612.024 199.854 611.417 198.386 610.796 196.932L615.222 195.061C615.85 196.544 616.465 198.026 617.072 199.523L612.624 201.323Z" fill="#CFFF55"/>
<g opacity="0.75">
<path d="M613.795 320.142L613.793 321.116L619.991 321.127L619.993 320.153L613.795 320.142Z" fill="white" fill-opacity="0.25"/>
</g>
<g opacity="0.75">
<path d="M594.393 425.232L594.042 426.141L599.826 428.371L600.176 427.462L594.393 425.232Z" fill="white" fill-opacity="0.25"/>
</g>
<g opacity="0.5">
<path d="M614.229 341.919L614.193 342.404L619.093 342.767L619.129 342.282L614.229 341.919Z" fill="white" fill-opacity="0.25"/>
</g>
<g opacity="0.5">
<path d="M611.887 363.406L611.816 363.888L616.676 364.608L616.747 364.126L611.887 363.406Z" fill="white" fill-opacity="0.25"/>
</g>
<g opacity="0.5">
<path d="M607.914 384.588L607.808 385.063L612.602 386.138L612.709 385.663L607.914 384.588Z" fill="white" fill-opacity="0.25"/>
</g>
<g opacity="0.5">
<path d="M602.486 405.559L602.345 406.025L607.047 407.45L607.189 406.984L602.486 405.559Z" fill="white" fill-opacity="0.25"/>
</g>
<g opacity="0.75">
<path d="M593.907 426.258L593.553 427.166L599.328 429.417L599.682 428.509L593.907 426.258Z" fill="white" fill-opacity="0.25"/>
</g>
<g opacity="0.75">
<path d="M537.857 517.157L537.202 517.878L541.789 522.046L542.444 521.325L537.857 517.157Z" fill="white" fill-opacity="0.25"/>
</g>
<g opacity="0.5">
<path d="M586.578 446.758L586.368 447.198L590.802 449.314L591.012 448.874L586.578 446.758Z" fill="white" fill-opacity="0.25"/>
</g>
<g opacity="0.5">
<path d="M580.554 468.714L576.283 466.279L576.53 465.855L580.794 468.291L580.554 468.714Z" fill="white" fill-opacity="0.25"/>
</g>
<g opacity="0.5">
<path d="M569.026 487.386L564.953 484.647L565.221 484.238L569.301 486.977L569.026 487.386Z" fill="white" fill-opacity="0.25"/>
</g>
<g opacity="0.5">
<path d="M552.454 501.713L552.153 502.096L556.02 505.127L556.32 504.744L552.454 501.713Z" fill="white" fill-opacity="0.25"/>
</g>
<g opacity="0.75">
<path d="M537.167 517.982L536.51 518.7L541.081 522.886L541.739 522.167L537.167 517.982Z" fill="white" fill-opacity="0.25"/>
</g>
<g opacity="0.75">
<path d="M451.895 582.513L451.024 582.949L453.801 588.49L454.672 588.054L451.895 582.513Z" fill="white" fill-opacity="0.25"/>
</g>
<g opacity="0.5">
<path d="M525.752 538.262L522.378 534.69L522.731 534.358L526.105 537.93L525.752 538.262Z" fill="white" fill-opacity="0.25"/>
</g>
<g opacity="0.5">
<path d="M506.513 548.613L506.135 548.921L509.24 552.729L509.617 552.421L506.513 548.613Z" fill="white" fill-opacity="0.25"/>
</g>
<g opacity="0.5">
<path d="M491.74 565.941L488.924 561.917L489.326 561.642L492.143 565.666L491.74 565.941Z" fill="white" fill-opacity="0.25"/>
</g>
<g opacity="0.5">
<path d="M473.33 577.878L470.817 573.657L471.234 573.41L473.754 577.624L473.33 577.878Z" fill="white" fill-opacity="0.25"/>
</g>
<g opacity="0.75">
<path d="M450.97 582.965L450.097 583.398L452.854 588.949L453.727 588.516L450.97 582.965Z" fill="white" fill-opacity="0.25"/>
</g>
<g opacity="0.75">
<path d="M348.322 612.388L347.352 612.478L347.929 618.65L348.899 618.559L348.322 612.388Z" fill="white" fill-opacity="0.25"/>
</g>
<g opacity="0.5">
<path d="M431.645 593.159L431.194 593.343L433.05 597.892L433.501 597.708L431.645 593.159Z" fill="white" fill-opacity="0.25"/>
</g>
<g opacity="0.5">
<path d="M412.473 605.41L410.955 600.736L411.421 600.581L412.939 605.254L412.473 605.41Z" fill="white" fill-opacity="0.25"/>
</g>
<g opacity="0.5">
<path d="M390.672 606.513L390.199 606.629L391.366 611.402L391.839 611.286L390.672 606.513Z" fill="white" fill-opacity="0.25"/>
</g>
<g opacity="0.5">
<path d="M369.554 610.818L369.074 610.898L369.887 615.744L370.367 615.663L369.554 610.818Z" fill="white" fill-opacity="0.25"/>
</g>
<g opacity="0.75">
<path d="M347.227 612.447L346.257 612.534L346.811 618.708L347.781 618.621L347.227 612.447Z" fill="white" fill-opacity="0.25"/>
</g>
<g opacity="0.75">
<path d="M239.836 602.509L238.152 608.474L239.09 608.739L240.774 602.774L239.836 602.509Z" fill="white" fill-opacity="0.25"/>
</g>
<g opacity="0.5">
<path d="M325.582 614.939L325.095 614.948L325.179 619.86L325.666 619.852L325.582 614.939Z" fill="white" fill-opacity="0.25"/>
</g>
<g opacity="0.5">
<path d="M303.498 614.572L303.226 619.478L303.712 619.505L303.984 614.599L303.498 614.572Z" fill="white" fill-opacity="0.25"/>
</g>
<g opacity="0.5">
<path d="M281.938 612.46L281.314 617.334L281.797 617.396L282.421 612.522L281.938 612.46Z" fill="white" fill-opacity="0.25"/>
</g>
<g opacity="0.5">
<path d="M260.154 613.951L259.674 613.859L260.656 609.045L261.136 609.144L260.154 613.951Z" fill="white" fill-opacity="0.25"/>
</g>
<g opacity="0.75">
<path d="M238.808 602.281L237.102 608.24L238.039 608.508L239.744 602.549L238.808 602.281Z" fill="white" fill-opacity="0.25"/>
</g>
<g opacity="0.75">
<path d="M143.181 554.462L139.448 559.41L140.226 559.996L143.959 555.048L143.181 554.462Z" fill="white" fill-opacity="0.25"/>
</g>
<g opacity="0.5">
<path d="M218.093 596.933L216.399 601.544L216.856 601.712L218.55 597.101L218.093 596.933Z" fill="white" fill-opacity="0.25"/>
</g>
<g opacity="0.5">
<path d="M198.145 588.622L196.113 593.095L196.556 593.297L198.589 588.824L198.145 588.622Z" fill="white" fill-opacity="0.25"/>
</g>
<g opacity="0.5">
<path d="M178.894 579.069L176.541 583.382L176.969 583.616L179.322 579.302L178.894 579.069Z" fill="white" fill-opacity="0.25"/>
</g>
<g opacity="0.5">
<path d="M160.303 567.963L157.644 572.095L158.054 572.358L160.712 568.227L160.303 567.963Z" fill="white" fill-opacity="0.25"/>
</g>
<g opacity="0.75">
<path d="M142.42 553.811L138.67 558.746L139.451 559.34L143.202 554.405L142.42 553.811Z" fill="white" fill-opacity="0.25"/>
</g>
<g opacity="0.75">
<path d="M70.5471 474.728L65.2881 478.009L65.8037 478.835L71.0627 475.555L70.5471 474.728Z" fill="white" fill-opacity="0.25"/>
</g>
<g opacity="0.5">
<path d="M125.056 541.26L121.809 544.947L122.175 545.269L125.422 541.582L125.056 541.26Z" fill="white" fill-opacity="0.25"/>
</g>
<g opacity="0.5">
<path d="M109.398 526.446L105.891 529.888L106.233 530.235L109.739 526.794L109.398 526.446Z" fill="white" fill-opacity="0.25"/>
</g>
<g opacity="0.5">
<path d="M94.8751 510.436L91.1288 513.614L91.4439 513.985L95.1903 510.807L94.8751 510.436Z" fill="white" fill-opacity="0.25"/>
</g>
<g opacity="0.5">
<path d="M81.5977 493.534L77.6288 496.431L77.916 496.824L81.8849 493.928L81.5977 493.534Z" fill="white" fill-opacity="0.25"/>
</g>
<g opacity="0.75">
<path d="M69.884 473.777L64.6107 477.033L65.1226 477.862L70.3958 474.605L69.884 473.777Z" fill="white" fill-opacity="0.25"/>
</g>
<g opacity="0.75">
<path d="M31.5197 374.106L25.4283 375.251L25.6082 376.208L31.6996 375.063L31.5197 374.106Z" fill="white" fill-opacity="0.25"/>
</g>
<g opacity="0.5">
<path d="M58.3323 455.946L53.9767 458.22L54.2021 458.652L58.5577 456.378L58.3323 455.946Z" fill="white" fill-opacity="0.25"/>
</g>
<g opacity="0.5">
<path d="M49.0137 436.427L44.5013 438.371L44.6941 438.818L49.2064 436.874L49.0137 436.427Z" fill="white" fill-opacity="0.25"/>
</g>
<g opacity="0.5">
<path d="M41.305 416.298L36.6625 417.906L36.822 418.367L41.4645 416.758L41.305 416.298Z" fill="white" fill-opacity="0.25"/>
</g>
<g opacity="0.5">
<path d="M35.0143 395.651L30.2641 396.907L30.3886 397.378L35.1387 396.122L35.0143 395.651Z" fill="white" fill-opacity="0.25"/>
</g>
<g opacity="0.75">
<path d="M31.2957 373.024L25.1999 374.144L25.3759 375.103L31.4717 373.983L31.2957 373.024Z" fill="white" fill-opacity="0.25"/>
</g>
<g opacity="0.75">
<path d="M25.4095 265.088L25.2333 266.046L31.3291 267.167L31.5053 266.209L25.4095 265.088Z" fill="white" fill-opacity="0.25"/>
</g>
<g opacity="0.5">
<path d="M26.9291 352.143L22.0453 352.678L22.0984 353.162L26.9822 352.627L26.9291 352.143Z" fill="white" fill-opacity="0.25"/>
</g>
<g opacity="0.5">
<path d="M25.4877 330.663L20.5774 330.839L20.5949 331.326L25.5052 331.15L25.4877 330.663Z" fill="white" fill-opacity="0.25"/>
</g>
<g opacity="0.5">
<path d="M20.5862 308.845L20.5687 309.332L25.4791 309.508L25.4966 309.022L20.5862 308.845Z" fill="white" fill-opacity="0.25"/>
</g>
<g opacity="0.5">
<path d="M22.1216 287.004L22.0688 287.489L26.9531 288.021L27.0059 287.537L22.1216 287.004Z" fill="white" fill-opacity="0.25"/>
</g>
<g opacity="0.75">
<path d="M25.5698 263.968L25.3901 264.926L31.4815 266.069L31.6612 265.112L25.5698 263.968Z" fill="white" fill-opacity="0.25"/>
</g>
<g opacity="0.75">
<path d="M65.1398 162.264L64.6278 163.093L69.9005 166.351L70.4125 165.522L65.1398 162.264Z" fill="white" fill-opacity="0.25"/>
</g>
<g opacity="0.5">
<path d="M30.3759 242.832L30.2511 243.303L35.0003 244.562L35.1251 244.091L30.3759 242.832Z" fill="white" fill-opacity="0.25"/>
</g>
<g opacity="0.5">
<path d="M36.8581 221.855L36.6989 222.315L41.3423 223.921L41.5016 223.461L36.8581 221.855Z" fill="white" fill-opacity="0.25"/>
</g>
<g opacity="0.5">
<path d="M44.7246 201.387L44.5319 201.834L49.0442 203.778L49.2369 203.331L44.7246 201.387Z" fill="white" fill-opacity="0.25"/>
</g>
<g opacity="0.5">
<path d="M54.1849 181.56L53.96 181.992L58.3175 184.261L58.5425 183.829L54.1849 181.56Z" fill="white" fill-opacity="0.25"/>
</g>
<g opacity="0.75">
<path d="M65.7432 161.343L65.2282 162.17L70.4891 165.447L71.0041 164.62L65.7432 161.343Z" fill="white" fill-opacity="0.25"/>
</g>
<g opacity="0.75">
<path d="M139.419 80.8687L138.643 81.4578L142.391 86.3945L143.167 85.8054L139.419 80.8687Z" fill="white" fill-opacity="0.25"/>
</g>
<g opacity="0.5">
<path d="M77.9083 143.39L77.6212 143.783L81.5906 146.679L81.8777 146.285L77.9083 143.39Z" fill="white" fill-opacity="0.25"/>
</g>
<g opacity="0.5">
<path d="M91.4982 126.14L91.1833 126.511L94.9316 129.688L95.2466 129.316L91.4982 126.14Z" fill="white" fill-opacity="0.25"/>
</g>
<g opacity="0.5">
<path d="M106.264 109.966L105.923 110.314L109.43 113.754L109.771 113.407L106.264 109.966Z" fill="white" fill-opacity="0.25"/>
</g>
<g opacity="0.5">
<path d="M122.236 94.9128L121.87 95.2347L125.118 98.9216L125.483 98.5997L122.236 94.9128Z" fill="white" fill-opacity="0.25"/>
</g>
<g opacity="0.75">
<path d="M140.29 80.1803L139.512 80.7666L143.242 85.717L144.02 85.1307L140.29 80.1803Z" fill="white" fill-opacity="0.25"/>
</g>
<g opacity="0.75">
<path d="M238.027 31.729L237.09 31.9968L238.794 37.9563L239.731 37.6885L238.027 31.729Z" fill="white" fill-opacity="0.25"/>
</g>
<g opacity="0.5">
<path d="M158.091 67.8066L157.681 68.0706L160.344 72.1996L160.753 71.9357L158.091 67.8066Z" fill="white" fill-opacity="0.25"/>
</g>
<g opacity="0.5">
<path d="M176.938 56.5576L176.51 56.7909L178.864 61.1038L179.291 60.8704L176.938 56.5576Z" fill="white" fill-opacity="0.25"/>
</g>
<g opacity="0.5">
<path d="M196.585 46.8795L196.141 47.0808L198.171 51.5548L198.615 51.3535L196.585 46.8795Z" fill="white" fill-opacity="0.25"/>
</g>
<g opacity="0.5">
<path d="M216.91 38.5017L216.453 38.6698L218.149 43.2813L218.606 43.1133L216.91 38.5017Z" fill="white" fill-opacity="0.25"/>
</g>
<g opacity="0.75">
<path d="M239.098 31.4129L238.16 31.6772L239.842 37.6429L240.78 37.3785L239.098 31.4129Z" fill="white" fill-opacity="0.25"/>
</g>
<g opacity="0.75">
<path d="M346.782 21.4558L346.227 27.629L347.198 27.7162L347.752 21.543L346.782 21.4558Z" fill="white" fill-opacity="0.25"/>
</g>
<g opacity="0.5">
<path d="M260.14 26.2066L259.663 26.304L260.645 31.1179L261.122 31.0206L260.14 26.2066Z" fill="white" fill-opacity="0.25"/>
</g>
<g opacity="0.5">
<path d="M281.784 22.7308L281.301 22.7928L281.927 27.6658L282.41 27.6037L281.784 22.7308Z" fill="white" fill-opacity="0.25"/>
</g>
<g opacity="0.5">
<path d="M303.671 20.698L303.184 20.7247L303.454 25.6306L303.94 25.6039L303.671 20.698Z" fill="white" fill-opacity="0.25"/>
</g>
<g opacity="0.5">
<path d="M325.099 20.3762L325.011 25.2885L325.498 25.2972L325.586 20.3849L325.099 20.3762Z" fill="white" fill-opacity="0.25"/>
</g>
<g opacity="0.75">
<path d="M347.872 21.5346L347.297 27.7059L348.267 27.7963L348.842 21.625L347.872 21.5346Z" fill="white" fill-opacity="0.25"/>
</g>
<g opacity="0.75">
<path d="M452.907 51.2248L450.147 56.7745L451.019 57.2083L453.779 51.6586L452.907 51.2248Z" fill="white" fill-opacity="0.25"/>
</g>
<g opacity="0.5">
<path d="M369.836 24.3992L369.02 29.2441L369.501 29.325L370.316 24.4801L369.836 24.3992Z" fill="white" fill-opacity="0.25"/>
</g>
<g opacity="0.5">
<path d="M391.353 28.7699L390.186 33.5426L390.66 33.6583L391.827 28.8856L391.353 28.7699Z" fill="white" fill-opacity="0.25"/>
</g>
<g opacity="0.5">
<path d="M412.495 34.7972L410.974 39.4692L411.437 39.62L412.958 34.948L412.495 34.7972Z" fill="white" fill-opacity="0.25"/>
</g>
<g opacity="0.5">
<path d="M433.104 42.2727L431.246 46.8214L431.697 47.0056L433.555 42.4569L433.104 42.2727Z" fill="white" fill-opacity="0.25"/>
</g>
<g opacity="0.75">
<path d="M453.852 51.6766L451.073 57.2164L451.943 57.6534L454.723 52.1136L453.852 51.6766Z" fill="white" fill-opacity="0.25"/>
</g>
<g opacity="0.75">
<path d="M541.062 117.357L536.491 121.544L537.149 122.262L541.72 118.075L541.062 117.357Z" fill="white" fill-opacity="0.25"/>
</g>
<g opacity="0.5">
<path d="M473.38 62.3076L470.863 66.5271L471.281 66.7767L473.798 62.5572L473.38 62.3076Z" fill="white" fill-opacity="0.25"/>
</g>
<g opacity="0.5">
<path d="M491.699 74.2623L488.88 78.2863L489.279 78.5657L492.098 74.5418L491.699 74.2623Z" fill="white" fill-opacity="0.25"/>
</g>
<g opacity="0.5">
<path d="M509.259 87.4512L506.155 91.2594L506.533 91.5671L509.637 87.7589L509.259 87.4512Z" fill="white" fill-opacity="0.25"/>
</g>
<g opacity="0.5">
<path d="M525.762 101.88L522.385 105.449L522.739 105.784L526.115 102.215L525.762 101.88Z" fill="white" fill-opacity="0.25"/>
</g>
<g opacity="0.75">
<path d="M541.795 118.155L537.208 122.323L537.863 123.044L542.45 118.876L541.795 118.155Z" fill="white" fill-opacity="0.25"/>
</g>
<g opacity="0.75">
<path d="M599.346 210.803L593.571 213.053L593.925 213.96L599.7 211.711L599.346 210.803Z" fill="white" fill-opacity="0.25"/>
</g>
<g opacity="0.5">
<path d="M556.084 135.111L552.219 138.145L552.52 138.528L556.385 135.494L556.084 135.111Z" fill="white" fill-opacity="0.25"/>
</g>
<g opacity="0.5">
<path d="M565.221 155.946L564.953 155.544L569.026 152.805L569.301 153.207L565.221 155.946Z" fill="white" fill-opacity="0.25"/>
</g>
<g opacity="0.5">
<path d="M576.53 174.335L576.282 173.905L580.553 171.476L580.793 171.9L576.53 174.335Z" fill="white" fill-opacity="0.25"/>
</g>
<g opacity="0.5">
<path d="M590.858 190.874L586.422 192.987L586.632 193.427L591.067 191.313L590.858 190.874Z" fill="white" fill-opacity="0.25"/>
</g>
<g opacity="0.75">
<path d="M599.783 211.797L594 214.026L594.35 214.935L600.134 212.706L599.783 211.797Z" fill="white" fill-opacity="0.25"/>
</g>
<g opacity="0.75">
<path d="M619.994 319.061L613.796 319.071L613.798 320.045L619.996 320.035L619.994 319.061Z" fill="white" fill-opacity="0.25"/>
</g>
<g opacity="0.5">
<path d="M607.044 232.76L602.342 234.183L602.483 234.649L607.185 233.226L607.044 232.76Z" fill="white" fill-opacity="0.25"/>
</g>
<g opacity="0.5">
<path d="M612.645 254.028L607.85 255.099L607.956 255.574L612.751 254.503L612.645 254.028Z" fill="white" fill-opacity="0.25"/>
</g>
<g opacity="0.5">
<path d="M616.637 275.583L611.777 276.302L611.848 276.784L616.708 276.065L616.637 275.583Z" fill="white" fill-opacity="0.25"/>
</g>
<g opacity="0.5">
<path d="M619.041 297.425L614.141 297.792L614.178 298.278L619.077 297.911L619.041 297.425Z" fill="white" fill-opacity="0.25"/>
</g>
<path d="M205.983 49.1676L203.766 43.9155C211.051 40.8447 218.548 38.0281 226.059 35.5432L227.845 40.9577C220.483 43.3931 213.127 46.1533 205.983 49.1676Z" fill="white" fill-opacity="0.25"/>
<path d="M174.689 582.1C168.844 578.846 163.034 575.352 157.415 571.716L160.514 566.93C166.027 570.502 171.731 573.933 177.463 577.123L174.689 582.1Z" fill="white" fill-opacity="0.25"/>
<path d="M231.275 628.006C229.722 627.554 228.169 627.095 226.623 626.63L228.021 622.041C229.546 622.507 231.071 622.959 232.602 623.396L231.275 628.006Z" fill="#CFFF55"/>
<path d="M634.424 382.711L629.708 381.779C630.019 380.219 630.315 378.659 630.605 377.092L635.327 377.953C635.038 379.541 634.734 381.13 634.424 382.711Z" fill="#CFFF55"/>
<path d="M0.225902 337.772C0.14119 336.155 0.0635334 334.546 0 332.929L4.80029 332.739C4.86382 334.334 4.93442 335.923 5.02619 337.511L0.225902 337.772Z" fill="#CFFF55"/>
<path d="M543.528 97.1566C542.398 96.0271 541.269 94.9117 540.125 93.8034L543.471 90.3585C544.629 91.488 545.779 92.6175 546.923 93.7611L543.528 97.1566Z" fill="#CFFF55"/>
<g opacity="0.5">
<path d="M320.35 605.728C162.667 605.728 34.379 477.44 34.379 319.757C34.379 162.074 162.667 33.7861 320.35 33.7861V35.4309C163.578 35.4309 36.0309 162.978 36.0309 319.75C36.0309 476.522 163.578 604.069 320.35 604.069V605.728Z" fill="white" fill-opacity="0.4"/>
</g>
<g opacity="0.5">
<path d="M283.048 357.107H275.855V364.301H283.048V357.107Z" fill="#F22414"/>
</g>
<g opacity="0.5">
<path d="M365.042 357.107H357.848V364.301H365.042V357.107Z" fill="#F22414"/>
</g>
<path d="M283.048 275.114H275.855V282.308H283.048V275.114Z" fill="#F22414"/>
<path d="M365.042 275.114H357.848V282.308H365.042V275.114Z" fill="#F22414"/>
<path opacity="0.5" d="M232.426 259.788L244.723 247.385L232.377 235.038V231.671H235.744L248.077 244.004L260.353 231.615L263.727 231.6L263.741 234.968L251.451 247.371L263.798 259.725V263.092H260.423L248.091 250.759L235.815 263.148L232.44 263.162L232.426 259.788Z" fill="white" fill-opacity="0.25"/>
<path d="M380.325 376.378L392.728 388.669L405.082 376.322H408.449V379.696L396.116 392.029L408.505 404.305L408.52 407.672L405.152 407.686L392.749 395.396L380.395 407.743H377.028V404.375L389.361 392.043L376.972 379.767L376.958 376.392L380.325 376.378Z" fill="white" fill-opacity="0.4"/>
<path opacity="0.3" d="M219.042 420.676C163.464 364.858 163.535 274.238 219.254 218.513C274.979 162.787 365.606 162.716 421.417 218.301L465.205 174.512C385.245 94.7849 255.334 94.8555 175.458 174.731C95.5894 254.6 95.5188 384.518 175.239 464.479L219.042 420.676Z" fill="white" fill-opacity="0.1"/>
<path d="M103.743 317.639H80.7228V322.227H103.743V317.639Z" fill="#CFFF55"/>
<path d="M559.609 317.639H536.588V322.227H559.609V317.639Z" fill="#CFFF55"/>
<path d="M156.959 153.486L153.715 156.731L169.992 173.008L173.237 169.764L156.959 153.486Z" fill="white" fill-opacity="0.25"/>
<path d="M470.315 466.848L467.071 470.092L483.348 486.37L486.593 483.126L470.315 466.848Z" fill="white" fill-opacity="0.25"/>
<path opacity="0.5" d="M320.229 114.763V176.665C344.986 176.63 369.75 182.969 391.824 195.662L422.638 141.941C391.055 123.798 355.645 114.727 320.229 114.763Z" fill="white" fill-opacity="0.25"/>
<path d="M319.672 577.766C317.928 577.766 316.192 577.745 314.455 577.71C294.506 577.201 274.606 574.406 255.306 569.394L251.691 568.49L239.154 564.685L226.821 560.252L214.729 555.205C214.348 555.049 213.981 554.866 213.614 554.689C213.416 554.591 213.218 554.499 213.021 554.407L202.912 549.564C202.178 549.197 201.472 548.809 200.766 548.421C200.377 548.209 199.989 547.997 199.594 547.785C182.023 538.495 165.498 527.186 150.476 514.162C149.657 514.091 148.866 513.986 148.097 513.887L145.259 513.506L139.809 512.729L134.282 511.875L128.62 510.745L128.486 510.611C104.753 486.8 85.1421 457.829 71.7648 426.825C58.331 395.729 50.6929 361.583 49.6622 328.08L50.9046 328.045C51.9212 361.4 59.531 395.383 72.9013 426.338C86.1868 457.137 105.663 485.932 129.227 509.602L134.486 510.654L139.985 511.501L148.252 512.658C149.106 512.771 149.918 512.877 150.772 512.948L150.977 512.962L151.132 513.096C166.126 526.113 182.63 537.415 200.173 546.691C200.568 546.903 200.963 547.122 201.359 547.334C202.051 547.715 202.749 548.096 203.455 548.449L213.55 553.277C213.748 553.369 213.952 553.468 214.157 553.567C214.503 553.736 214.856 553.906 215.209 554.054L227.273 559.087L239.542 563.499L252.016 567.29L255.609 568.187C274.824 573.178 294.633 575.959 314.483 576.467C334.045 576.877 353.952 574.971 373.661 570.806C392.432 566.902 411.379 560.485 429.973 551.724L433.354 550.136C433.552 550.044 433.757 549.945 433.961 549.854C434.314 549.691 434.674 549.522 435.02 549.345L445.743 543.677L456.163 537.514L462.382 533.434C462.975 533.039 463.582 532.643 464.182 532.248C465.629 531.302 467.133 530.328 468.517 529.262C469.611 528.45 470.705 527.659 471.792 526.869C474.672 524.779 477.651 522.619 480.411 520.297L486.235 515.602L491.791 510.661C494.685 508.197 497.431 505.493 500.086 502.874C500.919 502.048 501.759 501.23 502.599 500.411C504.067 499.034 505.458 497.523 506.792 496.069L512.806 489.568C513.816 488.396 514.818 487.189 515.821 485.981C516.407 485.276 516.993 484.57 517.586 483.871L521.172 479.579L522.28 478.11C534.478 462.453 544.891 445.377 553.235 427.347L554.364 427.87C545.978 445.991 535.516 463.145 523.268 478.873L522.146 480.355L518.539 484.676C517.946 485.374 517.36 486.08 516.774 486.786C515.764 487.993 514.755 489.208 513.731 490.401L507.703 496.916C506.347 498.392 504.942 499.916 503.453 501.314C502.62 502.126 501.787 502.945 500.954 503.764C498.278 506.397 495.518 509.122 492.603 511.6L487.033 516.548L481.195 521.25C478.414 523.6 475.413 525.775 472.512 527.871C471.425 528.662 470.331 529.452 469.251 530.25C467.832 531.337 466.314 532.326 464.846 533.286C464.246 533.674 463.646 534.069 463.053 534.465L456.805 538.566L446.336 544.757L435.585 550.447C435.218 550.637 434.844 550.807 434.477 550.976C434.279 551.068 434.074 551.16 433.877 551.258L430.488 552.847C411.809 561.643 392.771 568.095 373.901 572.02C355.865 575.839 337.638 577.766 319.672 577.766Z" fill="white" fill-opacity="0.25"/>
<path d="M560.695 413.101L559.531 412.656C570.437 384.221 576.304 354.777 576.967 325.157C577.539 295.148 572.929 265.492 563.272 237.015L560.441 229.087C560.131 228.198 559.82 227.322 559.46 226.503L555.175 216.105L550.417 205.961C550.071 205.184 549.669 204.429 549.274 203.695L545.222 196.036C538.028 182.969 529.656 170.453 520.345 158.826C511.026 147.193 500.628 136.3 489.439 126.438C478.448 116.802 466.278 107.929 453.275 100.065L453.105 99.966L450.225 93.5139L448.397 89.8783C446.759 86.6522 445.058 83.3838 443.335 80.1577C423.379 69.9783 401.975 62.1919 379.71 57.0033C378.672 56.7209 377.606 56.5162 376.583 56.3186C376.244 56.2551 375.898 56.1844 375.559 56.1209L365.097 54.0667L363.015 53.7631C361.702 53.5796 360.389 53.3819 359.069 53.1913C354.84 52.5701 350.464 51.9207 346.136 51.6101L339.755 51.01C338.971 50.9253 338.293 50.8759 337.665 50.8618L329.13 50.4806C328.636 50.4594 328.135 50.4382 327.634 50.4171C326.737 50.3747 325.806 50.3323 324.895 50.3253L312.104 50.3959L299.354 51.0877L286.655 52.3866C284.834 52.6336 282.963 52.9231 281.149 53.2054C280.182 53.3537 279.214 53.5019 278.247 53.6502L274.033 54.2926C273.136 54.4338 272.226 54.6173 271.35 54.8008C270.856 54.8997 270.362 55.0056 269.868 55.0974L261.517 56.7845C259.731 57.1798 257.917 57.6457 256.159 58.0905C255.192 58.3375 254.232 58.5846 253.265 58.8246L248.104 60.1306L236.915 63.5331C235.976 63.8014 235.038 64.1332 234.141 64.465C233.732 64.6132 233.315 64.7615 232.906 64.9026L228.896 66.3357C224.823 67.6981 220.792 69.3711 216.895 70.9877C215.617 71.5172 214.34 72.0466 213.055 72.569C211.947 72.9996 210.845 73.522 209.787 74.0162L201.471 77.9199C201.252 78.0258 201.019 78.1317 200.786 78.2376C200.377 78.4282 199.974 78.6118 199.579 78.8235L190.155 83.8074C189.936 83.9274 189.71 84.0403 189.491 84.1603C189.089 84.3721 188.686 84.5839 188.291 84.8027L177.293 91.3114L166.633 98.3283L156.313 105.846C155.953 106.108 155.607 106.397 155.254 106.679C155.056 106.842 154.858 107.004 154.661 107.159C153.644 107.985 152.621 108.804 151.597 109.63C148.251 112.313 144.792 115.087 141.594 118.052L138.396 120.897C138.072 121.193 137.74 121.483 137.401 121.779C136.688 122.407 135.947 123.057 135.276 123.742L127.652 131.217C127.087 131.761 126.628 132.22 126.191 132.714L123.289 135.855C122.626 136.582 121.948 137.302 121.278 138.03C120.035 139.364 118.757 140.747 117.522 142.131L109.326 151.936L101.625 162.123C100.573 163.626 99.5279 165.158 98.4831 166.697C97.9325 167.509 97.3748 168.328 96.8242 169.14L93.8311 173.545L87.746 183.534C87.6189 183.745 87.4848 183.964 87.3507 184.183C87.1177 184.564 86.8777 184.945 86.673 185.334L81.4844 194.899C80.8561 196.057 80.1996 197.25 79.6561 198.457L75.9641 206.159C75.7523 206.61 75.5335 207.069 75.3146 207.521C74.9264 208.326 74.5169 209.159 74.171 209.992L69.2366 221.795C68.5942 223.517 67.9659 225.275 67.3377 227.026C67.0059 227.943 66.6811 228.861 66.3494 229.779C64.8034 233.803 63.5398 237.996 62.3256 242.048C61.9303 243.361 61.535 244.674 61.1326 245.98L60.5184 248.02C60.3913 248.451 60.2855 248.888 60.1796 249.326C60.1231 249.573 60.0596 249.813 59.996 250.06L57.1652 261.433L55.3228 270.821C55.231 271.308 55.1322 271.803 55.0334 272.297C54.8569 273.193 54.6804 274.09 54.518 274.993L52.6897 287.644C52.4991 289.493 52.3226 291.364 52.1461 293.235C52.0544 294.195 51.9696 295.148 51.8779 296.108L51.4825 300.35C51.3908 301.254 51.3555 302.179 51.3202 303.075C51.299 303.583 51.2778 304.085 51.2496 304.593L50.8755 313.106L49.633 313.05L50.0072 304.529C50.0354 304.028 50.0566 303.527 50.0707 303.033C50.106 302.122 50.1413 301.176 50.2331 300.237L50.6284 295.995C50.7202 295.035 50.8119 294.082 50.8966 293.129C51.0731 291.251 51.2496 289.373 51.4402 287.495L53.2756 274.803C53.438 273.871 53.6144 272.967 53.798 272.057C53.8968 271.57 53.9956 271.076 54.0874 270.588L55.944 261.164L58.7818 249.757C58.8454 249.51 58.9018 249.277 58.9654 249.037C59.0783 248.578 59.1913 248.119 59.3183 247.667L59.9396 245.62C60.3419 244.314 60.7373 243.001 61.1326 241.695C62.3609 237.622 63.6245 233.4 65.1846 229.348C65.5093 228.445 65.8411 227.527 66.1729 226.609C66.8012 224.851 67.4365 223.087 68.093 221.336L73.0345 209.512C73.3945 208.65 73.8039 207.796 74.2063 206.977C74.4252 206.526 74.644 206.081 74.8558 205.629L78.5407 197.927C79.1054 196.692 79.769 195.478 80.4114 194.299L85.6 184.734C85.8188 184.317 86.0659 183.922 86.32 183.519C86.4471 183.308 86.5812 183.096 86.7083 182.884L92.8145 172.86L95.8289 168.427C96.3865 167.615 96.9372 166.803 97.4878 165.984C98.5326 164.445 99.5773 162.899 100.65 161.375L108.38 151.146L116.611 141.305C117.861 139.9 119.153 138.51 120.395 137.168C121.066 136.448 121.736 135.721 122.4 134.994L125.301 131.86C125.788 131.316 126.318 130.794 126.819 130.314L134.429 122.852C135.121 122.146 135.876 121.476 136.61 120.833C136.942 120.544 137.267 120.254 137.591 119.958L140.782 117.12C144.001 114.134 147.474 111.346 150.842 108.649C151.865 107.83 152.889 107.004 153.905 106.178C154.11 106.016 154.301 105.861 154.491 105.705C154.858 105.409 155.218 105.112 155.6 104.837L165.941 97.3047L176.65 90.2525L187.684 83.7227C188.1 83.4897 188.51 83.2709 188.926 83.052C189.145 82.9391 189.364 82.8191 189.583 82.7061L199.014 77.7223C199.431 77.5034 199.854 77.3058 200.285 77.1011C200.511 76.9952 200.737 76.8963 200.955 76.7834L209.278 72.8796C210.358 72.3714 211.474 71.8419 212.617 71.3972C213.888 70.8818 215.166 70.3524 216.443 69.823C220.361 68.1993 224.413 66.5122 228.515 65.1427L232.517 63.7096C232.934 63.5684 233.336 63.4202 233.739 63.2719C234.663 62.9402 235.616 62.5943 236.591 62.319L247.801 58.9093L252.996 57.5963C253.963 57.3563 254.923 57.1092 255.884 56.8692C257.648 56.4174 259.477 55.9515 261.291 55.5491L269.663 53.8549C270.157 53.7631 270.644 53.6572 271.132 53.5584C272.028 53.3749 272.953 53.1843 273.878 53.036L278.092 52.3936C279.059 52.2454 280.026 52.0971 280.993 51.9489C282.808 51.6665 284.685 51.3771 286.535 51.13L299.284 49.8241L312.089 49.1323L324.916 49.0616C325.855 49.0687 326.801 49.1111 327.712 49.1605C328.206 49.1817 328.707 49.2099 329.201 49.224L337.729 49.6052C338.371 49.6193 339.084 49.6758 339.896 49.7605L346.256 50.3606C350.619 50.6782 355.017 51.3277 359.266 51.9489C360.579 52.1395 361.893 52.3372 363.206 52.5207L365.316 52.8313L375.813 54.8926C376.152 54.9632 376.491 55.0268 376.83 55.0903C377.882 55.295 378.969 55.5068 380.028 55.7962C402.427 61.013 423.986 68.87 444.084 79.1412L444.26 79.233L444.352 79.4024C446.11 82.685 447.846 86.024 449.519 89.3207L451.355 92.9844L451.941 94.2692L454.094 99.1119C467.097 106.99 479.267 115.871 490.272 125.514C501.511 135.418 511.965 146.367 521.326 158.057C530.687 169.733 539.101 182.319 546.33 195.457L550.389 203.123C550.791 203.878 551.208 204.655 551.561 205.46L556.326 215.618L560.618 226.03C560.992 226.885 561.303 227.774 561.606 228.642L564.458 236.619C574.165 265.245 578.795 295.042 578.224 325.199C577.546 354.954 571.651 384.532 560.695 413.101Z" fill="white" fill-opacity="0.25"/>
</g>
<path d="M9.33273 617.333C14.0864 617.333 18.43 617.333 22.6673 617.333C22.6673 621.57 22.6673 625.921 22.6673 630.667L32 640C32 627.356 32 617.978 32 608C22.0218 608 12.6436 608 0 608L9.33273 617.333Z" fill="white" fill-opacity="0.25"/>
</g>
<defs>
<clipPath id="clip0_1_603">
<rect width="640" height="640" fill="white"/>
</clipPath>
<clipPath id="clip1_1_603">
<rect width="640" height="639.866" fill="white"/>
</clipPath>
</defs>
</svg>
