<svg width="577" height="39" viewBox="0 0 577 39" fill="none" xmlns="http://www.w3.org/2000/svg">
<path d="M0 39V35.5723V34.125L34.125 0H43.875V39H34.125V34.125H19.5L29.25 24.375H34.125V14.625L9.75 39H0ZM47.7598 39V11.6924V0H81.8848L72.1348 9.75H57.5098V14.625H72.1348L86.7598 0H91.6348V9.75L81.8848 19.5L91.6348 29.25V39H52.6348L62.3848 29.25H77.0098L72.1348 24.375H57.5098V29.25L47.7598 39ZM100.395 39L110.145 29.25H129.645V14.625L139.395 4.875V34.125L134.52 39H100.395ZM95.5195 39V15.1201V4.875L100.395 0H139.395L129.645 9.75H105.27V29.25L95.5195 39ZM148.154 39L143.279 34.125V10.2451V0H153.029V29.25H172.529L162.779 39H148.154ZM167.654 39L177.404 29.25V0H187.154V34.125L182.279 39H167.654ZM205.664 39V9.75H191.039V2.93262V0H230.039V4.875L225.164 9.75H215.414V39H205.664ZM247.559 39V11.6924V0H257.309V39H247.559ZM266.068 39L275.818 29.25H300.193L305.068 34.125V39H266.068ZM261.193 39V11.6924V0H270.943V29.25L261.193 39ZM313.828 39L323.578 29.25H347.953L352.828 34.125V39H313.828ZM308.953 39V11.6924V0H318.703V29.25L308.953 39ZM361.588 39L356.713 34.125V10.2451V0H366.463V29.25H385.963L376.213 39H361.588ZM381.088 39L390.838 29.25V0H400.588V34.125L395.713 39H381.088ZM404.473 39V18.5098V9.75L414.223 19.5V39H404.473ZM438.598 39L404.473 4.875V1.44727V0H414.223L448.348 34.125V39H438.598ZM458.098 39L423.973 4.875V0H433.723L467.848 34.125V39H458.098ZM471.732 39V11.6924V0H481.482V39H471.732ZM485.367 39V18.5098V9.75L495.117 19.5V39H485.367ZM519.492 39L485.367 4.875V1.44727V0H495.117L519.492 24.375V0H529.242V39H519.492ZM533.127 39V35.5723V34.125L547.752 19.5L533.127 4.875V0H542.877L557.502 14.625H572.127V24.375H557.502L552.627 29.25H572.127L577.002 34.125V39H533.127ZM557.502 9.75L547.752 0H577.002V4.875L572.127 9.75H557.502Z" fill="#B6BBFF"/>
</svg>
