<svg width="466" height="126" viewBox="0 0 466 126" fill="none" xmlns="http://www.w3.org/2000/svg">
<path d="M2.7 25V4.3H5.22V25H2.7ZM10.6102 25V4.3H13.1302V22.72H23.2102V25H10.6102ZM26.6355 25V4.3H29.1555V22.72H39.2355V25H26.6355ZM42.4809 20.41V4.3H45.0009V20.68C45.0009 22.04 45.6809 22.72 47.0409 22.72H53.5209C54.8809 22.72 55.5609 22.04 55.5609 20.68V4.3H58.0809V20.41C58.0809 23.47 56.5509 25 53.4909 25H47.0709C44.0109 25 42.4809 23.47 42.4809 20.41ZM63.3152 25V4.3H66.6452L73.5752 19L80.4752 4.3H83.8052V25H81.2852V8.08L74.7452 22H72.3752L65.8352 8.08V25H63.3152ZM89.2137 25V4.3H91.7337V25H89.2137ZM97.1238 25V4.3H99.9138L110.804 21.1V4.3H113.324V25H110.534L99.6438 8.2V25H97.1238ZM118.716 25V4.3H132.216V6.58H121.236V13H131.316V15.28H121.236V22.72H132.216V25H118.716ZM142.838 25V18.7C142.838 16.18 143.938 14.7 146.138 14.26L152.288 13.03C153.308 12.83 153.818 12.16 153.818 11.02V8.62C153.818 7.26 153.138 6.58 151.778 6.58H143.438V5.35L144.788 4.3H151.748C154.808 4.3 156.338 5.83 156.338 8.89V10.84C156.338 13.36 155.238 14.84 153.038 15.28L146.888 16.51C145.868 16.71 145.358 17.38 145.358 18.52V22.72H156.338V25H142.838ZM160.182 20.41V8.89C160.182 5.83 161.712 4.3 164.772 4.3H169.092C172.152 4.3 173.682 5.83 173.682 8.89V20.41C173.682 23.47 172.152 25 169.092 25H164.772C161.712 25 160.182 23.47 160.182 20.41ZM162.702 20.68C162.702 22.04 163.382 22.72 164.742 22.72H169.122C170.482 22.72 171.162 22.04 171.162 20.68V8.62C171.162 7.26 170.482 6.58 169.122 6.58H164.742C163.382 6.58 162.702 7.26 162.702 8.62V20.68ZM177.525 25V18.7C177.525 16.18 178.625 14.7 180.825 14.26L186.975 13.03C187.995 12.83 188.505 12.16 188.505 11.02V8.62C188.505 7.26 187.825 6.58 186.465 6.58H178.125V5.35L179.475 4.3H186.435C189.495 4.3 191.025 5.83 191.025 8.89V10.84C191.025 13.36 189.925 14.84 187.725 15.28L181.575 16.51C180.555 16.71 180.045 17.38 180.045 18.52V22.72H191.025V25H177.525ZM194.869 20.41V9.82C194.869 6.14 196.709 4.3 200.389 4.3H205.819L207.169 5.35V6.58H200.269C198.349 6.58 197.389 7.54 197.389 9.46V12.7H203.779C206.839 12.7 208.369 14.23 208.369 17.29V20.41C208.369 23.47 206.839 25 203.779 25H199.459C196.399 25 194.869 23.47 194.869 20.41ZM197.389 20.68C197.389 22.04 198.069 22.72 199.429 22.72H203.809C205.169 22.72 205.849 22.04 205.849 20.68V17.02C205.849 15.66 205.169 14.98 203.809 14.98H197.389V20.68Z" fill="white"/>
<path d="M1.024 44.552V38.408C1.024 36.776 1.84 35.96 3.472 35.96H5.776C7.408 35.96 8.224 36.776 8.224 38.408V44.552C8.224 46.184 7.408 47 5.776 47H3.472C1.84 47 1.024 46.184 1.024 44.552ZM2.368 44.696C2.368 45.4213 2.73067 45.784 3.456 45.784H5.792C6.51733 45.784 6.88 45.4213 6.88 44.696V38.264C6.88 37.5387 6.51733 37.176 5.792 37.176H3.456C2.73067 37.176 2.368 37.5387 2.368 38.264V44.696ZM10.274 44.552V38.408C10.274 36.776 11.09 35.96 12.722 35.96H15.026C16.658 35.96 17.474 36.776 17.474 38.408V44.552C17.474 46.184 16.658 47 15.026 47H12.722C11.09 47 10.274 46.184 10.274 44.552ZM11.618 44.696C11.618 45.4213 11.9807 45.784 12.706 45.784H15.042C15.7673 45.784 16.13 45.4213 16.13 44.696V38.264C16.13 37.5387 15.7673 37.176 15.042 37.176H12.706C11.9807 37.176 11.618 37.5387 11.618 38.264V44.696ZM19.812 47V45.272H21.364V47H19.812ZM19.812 40.44V38.712H21.364V40.44H19.812ZM23.6803 44.552V38.408C23.6803 36.776 24.4963 35.96 26.1283 35.96H28.4323C30.0643 35.96 30.8802 36.776 30.8802 38.408V44.552C30.8802 46.184 30.0643 47 28.4323 47H26.1283C24.4963 47 23.6803 46.184 23.6803 44.552ZM25.0243 44.696C25.0243 45.4213 25.3869 45.784 26.1123 45.784H28.4483C29.1736 45.784 29.5363 45.4213 29.5363 44.696V38.264C29.5363 37.5387 29.1736 37.176 28.4483 37.176H26.1123C25.3869 37.176 25.0243 37.5387 25.0243 38.264V44.696ZM32.9303 47V43.64C32.9303 42.296 33.5169 41.5067 34.6903 41.272L37.9703 40.616C38.5143 40.5093 38.7863 40.152 38.7863 39.544V38.264C38.7863 37.5387 38.4236 37.176 37.6983 37.176H33.2503V36.52L33.9703 35.96H37.6823C39.3143 35.96 40.1302 36.776 40.1302 38.408V39.448C40.1302 40.792 39.5436 41.5813 38.3703 41.816L35.0903 42.472C34.5463 42.5787 34.2743 42.936 34.2743 43.544V45.784H40.1302V47H32.9303ZM42.4683 47V45.272H44.0203V47H42.4683ZM42.4683 40.44V38.712H44.0203V40.44H42.4683ZM46.3365 47V43.64C46.3365 42.296 46.9232 41.5067 48.0965 41.272L51.3765 40.616C51.9205 40.5093 52.1925 40.152 52.1925 39.544V38.264C52.1925 37.5387 51.8298 37.176 51.1045 37.176H46.6565V36.52L47.3765 35.96H51.0885C52.7205 35.96 53.5365 36.776 53.5365 38.408V39.448C53.5365 40.792 52.9498 41.5813 51.7765 41.816L48.4965 42.472C47.9525 42.5787 47.6805 42.936 47.6805 43.544V45.784H53.5365V47H46.3365ZM55.4265 46.44V45.784H60.3545C61.0798 45.784 61.4425 45.4213 61.4425 44.696V42.744C61.4425 42.0187 61.0798 41.656 60.3545 41.656H55.5865V35.96H62.3065V37.176H56.9305V40.44H60.3385C61.9705 40.44 62.7865 41.256 62.7865 42.888V44.552C62.7865 46.184 61.9705 47 60.3385 47H56.1465L55.4265 46.44Z" fill="white" fill-opacity="0.79"/>
<rect x="230" y="8" width="2" height="6" fill="#6265FE"/>
<path d="M245.992 15.52V15.024H250.92C251.752 15.024 252.168 14.608 252.168 13.776V12.432C252.168 11.7387 251.859 11.328 251.24 11.2L247.72 10.48C246.568 10.256 245.992 9.488 245.992 8.176V7.344C245.992 5.75467 246.787 4.96 248.376 4.96H252.312L252.92 5.44V5.936H248.328C247.485 5.936 247.064 6.352 247.064 7.184V8.288C247.064 8.992 247.373 9.408 247.992 9.536L251.528 10.224C252.669 10.4587 253.24 11.2267 253.24 12.528V13.616C253.24 15.2053 252.445 16 250.856 16H246.616L245.992 15.52ZM255.722 16V4.96H260.906C262.495 4.96 263.29 5.75467 263.29 7.344V9.408C263.29 10.9867 262.495 11.776 260.906 11.776H256.794V16H255.722ZM256.794 10.816H260.97C261.802 10.816 262.218 10.3947 262.218 9.552V7.184C262.218 6.352 261.802 5.936 260.97 5.936H256.794V10.816ZM265.769 16V4.96H272.873V5.936H266.841V9.696H272.393V10.656H266.841V15.024H272.873V16H265.769ZM274.984 13.616V7.344C274.984 5.75467 275.779 4.96 277.368 4.96H281.944L282.568 5.44V5.936H277.32C276.477 5.936 276.056 6.352 276.056 7.184V13.776C276.056 14.608 276.477 15.024 277.32 15.024H282.568V15.52L281.944 16H277.368C275.779 16 274.984 15.2053 274.984 13.616ZM284.767 16V14.448H286.079V16H284.767ZM288.685 15.52V15.024H293.293C294.136 15.024 294.557 14.608 294.557 13.776V11.92C294.557 11.0773 294.136 10.656 293.293 10.656H289.869V9.696H293.293C294.136 9.696 294.557 9.27467 294.557 8.432V7.184C294.557 6.352 294.136 5.936 293.293 5.936H288.845V5.44L289.469 4.96H293.245C294.834 4.96 295.629 5.75467 295.629 7.344V8.544C295.629 8.97067 295.496 9.31733 295.229 9.584L294.669 10.144L295.229 10.704C295.496 10.9707 295.629 11.3173 295.629 11.744V13.616C295.629 15.2053 294.834 16 293.245 16H289.309L288.685 15.52ZM297.775 5.936V4.96H304.879V7.568L300.447 16H299.519L299.359 15.728L303.807 7.328V5.936H297.775ZM306.22 16V14.448H307.532V16H306.22ZM309.338 5.936V4.96H316.442V7.568L312.01 16H311.082L310.922 15.728L315.37 7.328V5.936H309.338ZM317.791 13.808V12.928L321.583 4.96H322.463L322.607 5.232L318.975 12.848H323.823V9.12H324.895V16H323.823V13.808H317.791Z" fill="white"/>
<rect x="230" y="36" width="2" height="6" fill="#6265FE"/>
<path d="M246.232 43.52V43.024H250.84C251.683 43.024 252.104 42.608 252.104 41.776V39.92C252.104 39.0773 251.683 38.656 250.84 38.656H247.416V37.696H250.84C251.683 37.696 252.104 37.2747 252.104 36.432V35.184C252.104 34.352 251.683 33.936 250.84 33.936H246.392V33.44L247.016 32.96H250.792C252.381 32.96 253.176 33.7547 253.176 35.344V36.544C253.176 36.9707 253.043 37.3173 252.776 37.584L252.216 38.144L252.776 38.704C253.043 38.9707 253.176 39.3173 253.176 39.744V41.616C253.176 43.2053 252.381 44 250.792 44H246.856L246.232 43.52ZM255.322 41.808V40.928L259.114 32.96H259.994L260.138 33.232L256.506 40.848H261.354V37.12H262.426V44H261.354V41.808H255.322ZM264.732 43.52V43.024H269.34C270.183 43.024 270.604 42.608 270.604 41.776V39.92C270.604 39.0773 270.183 38.656 269.34 38.656H265.916V37.696H269.34C270.183 37.696 270.604 37.2747 270.604 36.432V35.184C270.604 34.352 270.183 33.936 269.34 33.936H264.892V33.44L265.516 32.96H269.292C270.881 32.96 271.676 33.7547 271.676 35.344V36.544C271.676 36.9707 271.543 37.3173 271.276 37.584L270.716 38.144L271.276 38.704C271.543 38.9707 271.676 39.3173 271.676 39.744V41.616C271.676 43.2053 270.881 44 269.292 44H265.356L264.732 43.52ZM277.586 43.52V43.024H282.514C283.346 43.024 283.762 42.608 283.762 41.776V40.432C283.762 39.7387 283.452 39.328 282.834 39.2L279.314 38.48C278.162 38.256 277.586 37.488 277.586 36.176V35.344C277.586 33.7547 278.38 32.96 279.97 32.96H283.906L284.514 33.44V33.936H279.922C279.079 33.936 278.658 34.352 278.658 35.184V36.288C278.658 36.992 278.967 37.408 279.586 37.536L283.122 38.224C284.263 38.4587 284.834 39.2267 284.834 40.528V41.616C284.834 43.2053 284.039 44 282.45 44H278.21L277.586 43.52ZM286.164 43.744L289.892 32.96H291.716L295.428 43.744L295.268 44H294.388L293.412 41.056H288.18L287.204 44H286.34L286.164 43.744ZM288.532 40.096H293.076L291.012 33.936H290.596L288.532 40.096Z" fill="white"/>
<rect x="370" y="8" width="2" height="6" fill="#6265FE"/>
<path d="M385.992 15.52V15.024H390.92C391.752 15.024 392.168 14.608 392.168 13.776V12.432C392.168 11.7387 391.859 11.328 391.24 11.2L387.72 10.48C386.568 10.256 385.992 9.488 385.992 8.176V7.344C385.992 5.75467 386.787 4.96 388.376 4.96H392.312L392.92 5.44V5.936H388.328C387.485 5.936 387.064 6.352 387.064 7.184V8.288C387.064 8.992 387.373 9.408 387.992 9.536L391.528 10.224C392.669 10.4587 393.24 11.2267 393.24 12.528V13.616C393.24 15.2053 392.445 16 390.856 16H386.616L385.992 15.52ZM395.722 16V4.96H400.906C402.495 4.96 403.29 5.75467 403.29 7.344V9.408C403.29 10.9867 402.495 11.776 400.906 11.776H396.794V16H395.722ZM396.794 10.816H400.97C401.802 10.816 402.218 10.3947 402.218 9.552V7.184C402.218 6.352 401.802 5.936 400.97 5.936H396.794V10.816ZM405.769 16V4.96H412.873V5.936H406.841V9.696H412.393V10.656H406.841V15.024H412.873V16H405.769ZM414.984 13.616V7.344C414.984 5.75467 415.779 4.96 417.368 4.96H421.944L422.568 5.44V5.936H417.32C416.477 5.936 416.056 6.352 416.056 7.184V13.776C416.056 14.608 416.477 15.024 417.32 15.024H422.568V15.52L421.944 16H417.368C415.779 16 414.984 15.2053 414.984 13.616ZM424.767 16V14.448H426.079V16H424.767ZM428.685 15.52V15.024H433.293C434.136 15.024 434.557 14.608 434.557 13.776V11.92C434.557 11.0773 434.136 10.656 433.293 10.656H429.869V9.696H433.293C434.136 9.696 434.557 9.27467 434.557 8.432V7.184C434.557 6.352 434.136 5.936 433.293 5.936H428.845V5.44L429.469 4.96H433.245C434.834 4.96 435.629 5.75467 435.629 7.344V8.544C435.629 8.97067 435.496 9.31733 435.229 9.584L434.669 10.144L435.229 10.704C435.496 10.9707 435.629 11.3173 435.629 11.744V13.616C435.629 15.2053 434.834 16 433.245 16H429.309L428.685 15.52ZM437.775 5.936V4.96H444.879V7.568L440.447 16H439.519L439.359 15.728L443.807 7.328V5.936H437.775ZM446.22 16V14.448H447.532V16H446.22ZM449.338 5.936V4.96H456.442V7.568L452.01 16H451.082L450.922 15.728L455.37 7.328V5.936H449.338ZM457.791 13.808V12.928L461.583 4.96H462.463L462.607 5.232L458.975 12.848H463.823V9.12H464.895V16H463.823V13.808H457.791Z" fill="white"/>
<rect x="370" y="36" width="2" height="6" fill="#6265FE"/>
<path d="M386.232 43.52V43.024H390.84C391.683 43.024 392.104 42.608 392.104 41.776V39.92C392.104 39.0773 391.683 38.656 390.84 38.656H387.416V37.696H390.84C391.683 37.696 392.104 37.2747 392.104 36.432V35.184C392.104 34.352 391.683 33.936 390.84 33.936H386.392V33.44L387.016 32.96H390.792C392.381 32.96 393.176 33.7547 393.176 35.344V36.544C393.176 36.9707 393.043 37.3173 392.776 37.584L392.216 38.144L392.776 38.704C393.043 38.9707 393.176 39.3173 393.176 39.744V41.616C393.176 43.2053 392.381 44 390.792 44H386.856L386.232 43.52ZM395.322 41.808V40.928L399.114 32.96H399.994L400.138 33.232L396.506 40.848H401.354V37.12H402.426V44H401.354V41.808H395.322ZM404.732 43.52V43.024H409.34C410.183 43.024 410.604 42.608 410.604 41.776V39.92C410.604 39.0773 410.183 38.656 409.34 38.656H405.916V37.696H409.34C410.183 37.696 410.604 37.2747 410.604 36.432V35.184C410.604 34.352 410.183 33.936 409.34 33.936H404.892V33.44L405.516 32.96H409.292C410.881 32.96 411.676 33.7547 411.676 35.344V36.544C411.676 36.9707 411.543 37.3173 411.276 37.584L410.716 38.144L411.276 38.704C411.543 38.9707 411.676 39.3173 411.676 39.744V41.616C411.676 43.2053 410.881 44 409.292 44H405.356L404.732 43.52ZM417.586 43.52V43.024H422.514C423.346 43.024 423.762 42.608 423.762 41.776V40.432C423.762 39.7387 423.452 39.328 422.834 39.2L419.314 38.48C418.162 38.256 417.586 37.488 417.586 36.176V35.344C417.586 33.7547 418.38 32.96 419.97 32.96H423.906L424.514 33.44V33.936H419.922C419.079 33.936 418.658 34.352 418.658 35.184V36.288C418.658 36.992 418.967 37.408 419.586 37.536L423.122 38.224C424.263 38.4587 424.834 39.2267 424.834 40.528V41.616C424.834 43.2053 424.039 44 422.45 44H418.21L417.586 43.52ZM426.164 43.744L429.892 32.96H431.716L435.428 43.744L435.268 44H434.388L433.412 41.056H428.18L427.204 44H426.34L426.164 43.744ZM428.532 40.096H433.076L431.012 33.936H430.596L428.532 40.096Z" fill="white"/>
<g clip-path="url(#clip0_78_5268)">
<g clip-path="url(#clip1_78_5268)">
<path d="M-2.09815e-06 78L0 126L275 126L275 78L-2.09815e-06 78Z" fill="white" fill-opacity="0.26"/>
<path d="M10 86L10 118L168 118L168 86L10 86Z" fill="white" fill-opacity="0.79"/>
<path d="M10 86L10 118L25 118L25 86L10 86Z" fill="#909090"/>
</g>
</g>
<defs>
<clipPath id="clip0_78_5268">
<rect width="48" height="466" fill="white" transform="translate(0 126) rotate(-90)"/>
</clipPath>
<clipPath id="clip1_78_5268">
<rect width="48" height="275" fill="white" transform="translate(0 126) rotate(-90)"/>
</clipPath>
</defs>
</svg>
