<svg width="266" height="91" viewBox="0 0 266 91" fill="none" xmlns="http://www.w3.org/2000/svg">
<path d="M116.192 26.9874H117.718V28.5136H116.192V26.9874Z" fill="white"/>
<path d="M119.466 26.9874H120.992V28.5136H119.466V26.9874Z" fill="#6265FE"/>
<g opacity="0.65">
<path opacity="0.65" d="M27.6735 63.5319L66.5277 24.6777H120.992V23.8483H66.1826L27.0896 62.9446L27.6735 63.5319Z" fill="white"/>
</g>
<g opacity="0.5">
<path opacity="0.5" d="M27.5042 81.2725C31.0601 81.2725 34.5361 80.218 37.4927 78.2425C40.4493 76.2669 42.7537 73.459 44.1145 70.1738C45.4753 66.8886 45.8313 63.2736 45.1376 59.7861C44.4439 56.2985 42.7316 53.095 40.2172 50.5806C37.7028 48.0662 34.4993 46.3539 31.0117 45.6602C27.5241 44.9664 23.9092 45.3225 20.624 46.6833C17.3388 48.044 14.5308 50.3484 12.5553 53.3051C10.5797 56.2617 9.52531 59.7377 9.52531 63.2936C9.53058 68.0603 11.4265 72.6302 14.797 76.0008C18.1676 79.3713 22.7375 81.2672 27.5042 81.2725ZM27.5042 47.2821C30.671 47.2821 33.7666 48.2212 36.3997 49.9805C39.0328 51.7399 41.085 54.2406 42.2969 57.1663C43.5087 60.092 43.8258 63.3114 43.208 66.4173C42.5902 69.5232 41.0652 72.3762 38.826 74.6154C36.5868 76.8546 33.7338 78.3796 30.6279 78.9974C27.522 79.6152 24.3026 79.2981 21.3769 78.0862C18.4512 76.8744 15.9505 74.8221 14.1911 72.1891C12.4318 69.556 11.4927 66.4604 11.4927 63.2936C11.5015 59.051 13.1917 54.9849 16.1929 51.9862C19.1941 48.9874 23.2616 47.3007 27.5042 47.2954V47.2821Z" fill="white"/>
</g>
<path d="M27.5042 81.2725C31.0601 81.2725 34.5361 80.218 37.4927 78.2425C40.4493 76.2669 42.7537 73.459 44.1145 70.1738C45.4753 66.8886 45.8313 63.2736 45.1376 59.7861C44.4439 56.2985 42.7316 53.095 40.2172 50.5806C37.7028 48.0662 34.4993 46.3539 31.0117 45.6602C27.5241 44.9664 23.9092 45.3225 20.624 46.6833C17.3388 48.044 14.5308 50.3484 12.5553 53.3051C10.5797 56.2617 9.52531 59.7377 9.52531 63.2936C9.53058 68.0603 11.4265 72.6302 14.797 76.0008C18.1676 79.3713 22.7375 81.2672 27.5042 81.2725ZM27.5042 47.2821C30.671 47.2821 33.7666 48.2212 36.3997 49.9805C39.0328 51.7399 41.085 54.2406 42.2969 57.1663C43.5087 60.092 43.8258 63.3114 43.208 66.4173C42.5902 69.5232 41.0652 72.3762 38.826 74.6154C36.5868 76.8546 33.7338 78.3796 30.6279 78.9974C27.522 79.6152 24.3026 79.2981 21.3769 78.0862C18.4512 76.8744 15.9505 74.8221 14.1911 72.1891C12.4318 69.556 11.4927 66.4604 11.4927 63.2936C11.5015 59.051 13.1917 54.9849 16.1929 51.9862C19.1941 48.9874 23.2616 47.3007 27.5042 47.2954V47.2821Z" fill="#6265FE"/>
<path d="M0.00316143 30.2751H11.6352V32.1862H0.00316143V30.2751Z" fill="#6265FE"/>
<path opacity="0.45" d="M14.9531 30.2751H26.5851V32.1862H14.9531V30.2751Z" fill="#6265FE"/>
<path opacity="0.75" d="M5.27595 40.0966L10.0219 44.8425L8.96621 45.8982L4.22025 41.1523L5.27595 40.0966Z" fill="white"/>
<path opacity="0.75" d="M45.9534 80.7746L50.7885 85.6097L49.7328 86.6654L44.8977 81.8303L45.9534 80.7746Z" fill="white"/>
<path d="M27.5242 65.5034C26.3039 65.5034 25.3146 64.5141 25.3146 63.2937C25.3146 62.0734 26.3039 61.0841 27.5242 61.0841C28.7446 61.0841 29.7338 62.0734 29.7338 63.2937C29.7338 64.5141 28.7446 65.5034 27.5242 65.5034Z" fill="white"/>
<rect x="66.9919" width="199" height="20" fill="#D9D9D9" fill-opacity="0.2"/>
</svg>
